<?xml version="1.0" encoding="utf-8"?>
<!-- Generator: Adobe Illustrator 24.0.1, SVG Export Plug-In . SVG Version: 6.00 Build 0)  -->
<svg version="1.1"
	 id="svg2" xmlns:cc="http://creativecommons.org/ns#" xmlns:dc="http://purl.org/dc/elements/1.1/" xmlns:inkscape="http://www.inkscape.org/namespaces/inkscape" xmlns:rdf="http://www.w3.org/1999/02/22-rdf-syntax-ns#" xmlns:sodipodi="http://sodipodi.sourceforge.net/DTD/sodipodi-0.dtd" xmlns:svg="http://www.w3.org/2000/svg"
	 xmlns="http://www.w3.org/2000/svg" xmlns:xlink="http://www.w3.org/1999/xlink" x="0px" y="0px" viewBox="0 0 4000 2666.7"
	 style="enable-background:new 0 0 4000 2666.7;" xml:space="preserve">
<style type="text/css">
	.st0{fill:#F6F5F5;}
	.st1{fill:#DADADA;}
	.st2{fill:#FFFFFF;}
	.st3{fill:#86A7FF;}
	.st4{fill:#D3DFFF;}
	.st5{fill:#AFBEE7;}
	.st6{fill:#7192E7;}
	.st7{fill:#3A6BEA;}
	.st8{fill:#102048;}
	.st9{fill:#E28B6D;}
	.st10{fill:#F9B384;}
	.st11{fill:#FBC343;}
	.st12{fill:#E49B31;}
	.st13{fill:#1F3C88;}
</style>
<sodipodi:namedview  bordercolor="#666666" borderopacity="1" gridtolerance="10" guidetolerance="10" id="namedview4" inkscape:pageopacity="0" inkscape:pageshadow="2" inkscape:window-height="480" inkscape:window-width="640" objecttolerance="10" pagecolor="#ffffff">
	</sodipodi:namedview>
<g id="g10" transform="matrix(1.3333333,0,0,-1.3333333,0,2666.6667)" inkscape:groupmode="layer" inkscape:label="ink_ext_XXXXXX">
	<g id="g12" transform="scale(0.1)">
		<path id="path16" class="st0" d="M27698.1,4325.7c-338.5,1833.9-1925.6,3475.7-3790.1,3511.8c-207.8,4-419-10.2-629.9-24.3
			c-492.2-33.1-983-66.2-1425.6,131.9c-467.6,209.3-792.2,641.8-1208.4,940.4c-635.1,455.5-1461.7,577-2238.9,494.4
			c-777.2-82.6-1520.7-351.6-2255.2-618.6c-1130,1325.6-2897.8,2081-4636.8,1981.5c-1739-99.6-3409-1051.8-4380.3-2497.7
			C5200.1,8269.2,3365,6740.3,3039.8,4834.9c-166.9-977.6,74.8-1993.1,596.4-2834.2h23854.6
			C27753,2765.8,27832,3600.2,27698.1,4325.7"/>
		<path id="path18" class="st1" d="M25537.5,1981.9l-21.7,37.6c437,252,837.5,631.4,1190.2,1127.7
			c334.1,470,612.2,1034.2,804.2,1631.5c381.9,1188.3,516.6,2455.2,644.8,3681.8c-1020.2-311.6-1980.6-1129.5-2638.9-2248.8
			c-665.7-1132-1013.9-2557.7-955.4-3911.6l-43.3-1.9c-58.9,1362,291.5,2796.4,961.3,3935.4
			c670.5,1140.2,1652.8,1970.4,2695.1,2277.8l31.1,9.2l-3.3-32.3c-129.5-1238.8-263.4-2519.8-650.1-3722.9
			c-193.3-601.4-473.5-1169.7-810.1-1643.4C26385,2620.6,25979.9,2237,25537.5,1981.9"/>
		<path id="path20" class="st1" d="M24661.6,2230l-43.2,3.7c39.3,456.2,181.8,914.6,435.5,1401.3
			c244.9,469.7,560.6,898.8,808.3,1220.2c60.4,78.3,122.5,158,182.5,235c524.4,673.3,1066.7,1369.5,1320.6,2218.5l41.6-12.5
			c-256.3-856.7-801.1-1556.2-1328-2232.7c-60-77-122-156.6-182.3-234.8c-246.6-319.9-560.9-747-804.2-1213.8
			C24841.3,3133.4,24700.4,2680.4,24661.6,2230"/>
		<path id="path22" class="st1" d="M25808.7,4470.7c-60,0-119.6,3.9-178.5,11.9l5.8,43c259.3-34.9,533.3,10.1,792.4,130
			c259.6,120.2,491.3,309.7,670.2,547.9l34.7-26c-183.2-244-420.6-438.1-686.7-561.2C26238.8,4520,26021.3,4470.7,25808.7,4470.7"/>
		<path id="path24" class="st1" d="M26236.1,5325.6c-142.1,499.5-44.7,1099.8,248.1,1529.5l35.8-24.4
			c-285.8-419.5-380.9-1005.6-242.2-1493.2L26236.1,5325.6"/>
		<path id="path26" class="st1" d="M27019.8,1976.5l-15.3,40.6c491.7,185.7,934.7,565.3,1247.5,1068.8
			c265.4,427.3,445.1,948.8,534.2,1550.5c-545.3-24.4-1090.6-244.1-1499.8-604.9l-28.7,32.5c423.2,373.1,989.2,597.9,1553,616.8
			l25.9,0.9l-3.7-25.6c-88.6-618.6-271.6-1154.6-544-1593.1C27971.1,2551.4,27520.4,2165.6,27019.8,1976.5"/>
		<path id="path28" class="st1" d="M25701.3,2091.4l-18.5,39.2c980.4,460.8,1887.6,1124.6,2623.3,1919.6l31.9-29.4
			C27598.4,3221.7,26686.7,2554.5,25701.3,2091.4"/>
		<path id="path30" class="st1" d="M21914.2,1950c-380.2,142.7-726.5,409.1-1001.6,770.4c-253.3,332.5-442.2,736.6-546.6,1168.7
			c-206.4,854.9-108.7,1766.8-0.9,2554.3l4.8,35.3l29.2-20.4c692.5-485.3,1408.6-987.1,1928-1679.3
			c578.4-770.8,783.8-1677,549.6-2424l-41.4,12.9c230.1,733.8,27.1,1625.4-542.9,2385.1c-508,677-1208.5,1172.3-1889.1,1649.3
			c-105.3-775.5-196.7-1668.1,4.9-2503c102.9-426.3,289.3-824.9,538.9-1152.6c270.1-354.8,609.8-616.2,982.3-756.1L21914.2,1950"/>
		<path id="path32" class="st1" d="M22473,2252.6l-1672.9,3386.1l38.9,19.2l1672.8-3386.1L22473,2252.6"/>
		<path id="path34" class="st1" d="M21709.9,3709.6c-221.2,0-443.8,58.7-645.7,170.4c-210.5,116.5-384.2,282.8-502.1,480.9
			l37.2,22.2c114-191.5,282.1-352.3,485.9-465.2c203.9-112.8,429.6-169.6,652.3-164.6l1-43.4
			C21729,3709.7,21719.4,3709.6,21709.9,3709.6"/>
		<path id="path36" class="st1" d="M5443.6,2011.9c-494,101.5-955.8,347.2-1372.5,730.3c-374.8,344.5-696.1,789.6-929.3,1287.1
			c-451.8,964.1-589.5,2031.5-722.7,3063.8l-4.6,35.7l33.7-12.6c1286.1-481.3,2184.8-1035,2828.4-1742.5
			c822.6-904.4,1170.7-2091.3,908.4-3097.8l-42,10.9c258.6,992.5-85.7,2164.1-898.5,3057.7
			c-633.2,696.1-1516.4,1242.6-2777.8,1718.4c131.4-1017.9,270.6-2068.4,714.4-3015.1c230.8-492.5,548.7-932.9,919.4-1273.7
			c410.8-377.7,865.6-619.8,1351.9-719.7L5443.6,2011.9"/>
		<path id="path38" class="st1" d="M5893.8,2264.9c-353.6,690.9-776,1353.5-1255.6,1969.5c-479.6,616-1018.4,1188-1601.5,1700.2
			l28.6,32.6c585.1-514,1125.9-1088,1607.1-1706.2c481.3-618.1,905.2-1283,1260-1976.3L5893.8,2264.9"/>
		<path id="path40" class="st1" d="M4366,4475.1c-414.7,144.9-825.4,315.7-1220.5,507.7l19,39c393.6-191.3,802.7-361.4,1215.9-505.8
			L4366,4475.1"/>
		<path id="path42" class="st1" d="M5079.7,3755.8l-43.2,4.4l96.9,963.7l43.2-4.3L5079.7,3755.8"/>
		<path id="path44" class="st1" d="M3686.1,2023.6c-254.3,0-516.1,75.7-761.3,220.5c-243.2,143.6-464.1,349.8-638.7,596.3
			c-139.4,196.7-290.4,549.8-449,1049.4c-117.8,371.3-196,689.3-196.8,692.4l-8.2,33.3l33.6-6.9c45.1-9.2,1109.3-230.4,1490.1-571.9
			l-29-32.3c-153.4,137.6-455.8,278.3-874.6,406.9c-252.7,77.6-478.2,129.4-561.3,147.6c51.9-203.8,334-1274.9,630.5-1693.4
			c171.1-241.5,387.4-443.5,625.4-584.1c258.7-152.7,535.9-226.3,801.6-212.8l2.2-43.3C3729.2,2024.2,3707.6,2023.6,3686.1,2023.6"
			/>
		<path id="path46" class="st1" d="M3544,2568.3c-428.1,595.4-923.4,1143.9-1472.3,1630.2l28.8,32.5
			c551.3-488.5,1048.8-1039.3,1478.7-1637.3L3544,2568.3"/>
		<path id="path48" class="st1" d="M9020.4,1962.6l-28.3,32.9c553.1,476.2,948,1130.2,1112.1,1841.4
			c162.7,705.6,96.4,1460.2-186.5,2126.8c-369.5-65.2-728-250.9-1037.8-537.6c-289.9-268.4-529.9-615.3-694-1003.3
			c-310-732.6-369.2-1553.6-406.6-2400.7l-43.3,1.9c37.5,851.2,97.2,1676.4,410,2415.7c166.5,393.6,410.1,745.7,704.5,1018.2
			c320.7,296.9,693.1,487.6,1076.9,551.4l16.8,2.8l6.7-15.6c292.3-678.8,361.7-1449.2,195.6-2169.4
			C9980.3,3107,9580.4,2444.8,9020.4,1962.6"/>
		<path id="path50" class="st1" d="M8342.5,2116l-41.3,13.3c305,946.5,732.6,1850.2,1271.2,2686.1l36.5-23.5
			C9072.3,3959.2,8646.3,3058.9,8342.5,2116"/>
		<path id="path52" class="st1" d="M8982,3738.8l-24.7,35.7c273.3,189.4,591.1,318.8,918.9,374.4l7.3-42.7
			C9561.9,4051.6,9250.2,3924.6,8982,3738.8"/>
		<path id="path54" class="st1" d="M19055.4,3649.2c-77.7,0-141-63.3-141-141s63.3-141,141-141c77.8,0,141,63.3,141,141
			S19133.2,3649.2,19055.4,3649.2z M19055.4,3323.8c-101.6,0-184.4,82.7-184.4,184.4s82.8,184.4,184.4,184.4
			c101.7,0,184.4-82.7,184.4-184.4S19157.1,3323.8,19055.4,3323.8"/>
		<path id="path56" class="st1" d="M26322,8941.9c-77.8,0-141-63.3-141-141c0-77.8,63.2-141,141-141c77.7,0,141,63.2,141,141
			C26463,8878.6,26399.7,8941.9,26322,8941.9z M26322,8616.5c-101.7,0-184.4,82.7-184.4,184.4c0,101.6,82.7,184.3,184.4,184.3
			c101.6,0,184.3-82.7,184.3-184.3C26506.3,8699.2,26423.6,8616.5,26322,8616.5"/>
		<path id="path58" class="st1" d="M28914.1,5861.7c0-89.8-72.9-162.7-162.7-162.7c-89.9,0-162.7,72.9-162.7,162.7
			c0,89.9,72.8,162.7,162.7,162.7C28841.2,6024.4,28914.1,5951.6,28914.1,5861.7"/>
		<path id="path60" class="st1" d="M2852.1,8898.5c0-89.9-72.8-162.7-162.7-162.7c-89.9,0-162.7,72.8-162.7,162.7
			c0,89.8,72.8,162.7,162.7,162.7C2779.2,9061.2,2852.1,8988.3,2852.1,8898.5"/>
		<path id="path62" class="st1" d="M1290.3,6208.8c-77.7,0-141-63.3-141-141c0-77.8,63.3-141,141-141c77.8,0,141,63.2,141,141
			C1431.3,6145.5,1368.1,6208.8,1290.3,6208.8z M1290.3,5883.4c-101.7,0-184.4,82.7-184.4,184.4c0,101.6,82.7,184.3,184.4,184.3
			c101.7,0,184.4-82.7,184.4-184.3C1474.7,5966.1,1392,5883.4,1290.3,5883.4"/>
		<path id="path64" class="st1" d="M11322.5,4072.2c-77.8,0-141-63.3-141-141c0-77.8,63.2-141,141-141c77.7,0,141,63.2,141,141
			C11463.5,4008.9,11400.2,4072.2,11322.5,4072.2z M11322.5,3746.8c-101.7,0-184.4,82.7-184.4,184.4s82.7,184.4,184.4,184.4
			s184.4-82.7,184.4-184.4S11424.2,3746.8,11322.5,3746.8"/>
		<path id="path66" class="st2" d="M4529.5,13685c0,351.4-485.6,636.3-1084.6,636.3s-1084.6-284.9-1084.6-636.3
			c0-351.4,485.6-636.3,1084.6-636.3c130.8,0,256.1,13.6,372.3,38.5c81.1-97.6,221.6-184.8,458.4-235.1c0,0-86.9,159.5-140.1,342.3
			C4376.2,13311.1,4529.5,13487.5,4529.5,13685"/>
		<path id="path68" class="st3" d="M3829.7,13123.2l12.6-15.2c77.6-93.3,202.8-163.2,372.8-208.1c-30.7,64-77.1,169.5-110.8,285.4
			l-7.7,26.4l24.7,11.9c238.8,115.8,375.7,284,375.7,461.4c0,332.9-471.9,603.8-1052,603.8c-580.1,0-1052-270.9-1052-603.8
			c0-332.9,471.9-603.7,1052-603.7c125.6,0,248.6,12.7,365.4,37.7L3829.7,13123.2z M4338,12805.6l-69.1,14.6
			c-209.8,44.6-365.7,122.3-463.7,231.3c-115.6-23.4-236.7-35.3-360.2-35.3c-295.4,0-573.6,67.8-783.4,190.8
			c-215.2,126.3-333.7,296-333.7,478s118.5,351.7,333.7,478c209.8,123,488,190.8,783.4,190.8s573.6-67.8,783.4-190.8
			c215.2-126.3,333.7-296,333.7-478c0-196.8-140.8-380.6-387.5-507.5c51.9-166.1,128.8-308.4,129.6-309.9L4338,12805.6"/>
		<path id="path70" class="st3" d="M4055.9,13800.7H2819.5v43.4h1236.4L4055.9,13800.7"/>
		<path id="path72" class="st3" d="M3730.6,13562.1h-911v43.4h911V13562.1"/>
		<path id="path74" class="st2" d="M25175.9,14422.5c0,351.4,485.6,636.3,1084.6,636.3s1084.6-284.9,1084.6-636.3
			c0-351.4-485.6-636.3-1084.6-636.3c-130.8,0-256.1,13.6-372.2,38.5c-81.2-97.6-221.6-184.8-458.5-235.1c0,0,87,159.5,140.2,342.3
			C25329.3,14048.6,25175.9,14225,25175.9,14422.5"/>
		<path id="path76" class="st3" d="M26260.5,15026.3c-580.1,0-1052-270.9-1052-603.8c0-177.4,136.9-345.6,375.7-461.4l24.7-11.9
			l-7.7-26.4c-33.7-115.9-80.1-221.4-110.8-285.4c170,44.9,295.3,114.8,372.8,208.1l12.6,15.2l19.3-4.2
			c116.8-25,239.8-37.7,365.4-37.7c580.1,0,1052,270.8,1052,603.7S26840.6,15026.3,26260.5,15026.3L26260.5,15026.3z
			 M25367.5,13543.1l33.8,62c0.8,1.5,77.8,143.8,129.6,309.9c-246.7,126.9-387.5,310.7-387.5,507.5c0,182,118.5,351.7,333.7,478
			c209.8,123,488,190.8,783.4,190.8s573.6-67.8,783.4-190.8c215.2-126.3,333.7-296,333.7-478s-118.5-351.7-333.7-478
			c-209.8-123-488-190.8-783.4-190.8c-123.4,0-244.5,11.9-360.2,35.3c-98.1-109-253.9-186.7-463.7-231.2L25367.5,13543.1"/>
		<path id="path78" class="st3" d="M26885.9,14538.2h-1236.4v43.4h1236.4V14538.2"/>
		<path id="path80" class="st3" d="M26560.6,14299.6h-911.1v43.4h911.1V14299.6"/>
		<path id="path82" class="st4" d="M13036.4,2000.7h3774.3v4251.4h-3774.3L13036.4,2000.7z"/>
		<path id="path84" class="st3" d="M13068.9,2033.2h3709.2v4186.4h-3709.2V2033.2 M16843.2,1968.1h-3839.3v4316.6h3839.3V1968.1"/>
		<path id="path86" class="st5" d="M13068.9,4440.3h3709.2v1779.3h-3709.2L13068.9,4440.3z"/>
		<path id="path88" class="st6" d="M16810.7,4440.3h-32.6v1779.3h-3709.2V4440.3h-32.5v1811.8h3774.3L16810.7,4440.3"/>
		<path id="path90" class="st2" d="M15928.6,4856.7c0-555.1-450-1005-1005.1-1005c-555,0-1005,449.9-1005,1005
			c0,555,450,1005,1005,1005C15478.6,5861.7,15928.6,5411.7,15928.6,4856.7"/>
		<path id="path92" class="st4" d="M22716.8,5092.5H7130.2c-184.1,0-333.4,149.3-333.4,333.4v11078.2
			c0,184.1,149.2,333.4,333.4,333.4h15586.6c184.2,0,333.4-149.3,333.4-333.4V5425.9C23050.2,5241.8,22901,5092.5,22716.8,5092.5"/>
		<path id="path94" class="st3" d="M7158.4,16804.9c-181.4,0-329-147.6-329-329V5454.1c0-181.5,147.6-329.1,329-329.1h15530.3
			c181.4,0,329,147.6,329,329.1v11021.8c0,181.4-147.6,329-329,329H7158.4z M22688.7,5060H7158.4c-217.3,0-394.1,176.8-394.1,394.1
			v11021.8c0,217.3,176.8,394.1,394.1,394.1h15530.3c217.3,0,394-176.8,394-394.1V5454.1C23082.7,5236.8,22906,5060,22688.7,5060"/>
		<path id="path96" class="st2" d="M22755.1,6778.2H7091.9v9645.1h15663.2V6778.2"/>
		<path id="path98" class="st3" d="M7124.5,6810.7h15598.1v9580.1H7124.5V6810.7z M22787.7,6745.6H7059.4v9710.2h15728.3V6745.6"/>
		<path id="path100" class="st4" d="M16556.2,15165.1h-3542.8v414.1h3542.8V15165.1"/>
		<path id="path102" class="st4" d="M19377.9,14605.8h-9186.2v154.9h9186.2V14605.8"/>
		<path id="path104" class="st3" d="M21145,9970.7h-3544.3v154.9H21145V9970.7"/>
		<path id="path106" class="st3" d="M20652.7,9585.8h-3052v154.9h3052V9585.8"/>
		<path id="path108" class="st3" d="M19525.7,9200.9h-1925v154.9h1925V9200.9"/>
		<path id="path110" class="st4" d="M20718.1,8484.5h-3117.4v154.9h3117.4V8484.5"/>
		<path id="path112" class="st4" d="M20285.1,8099.6h-2684.4v155h2684.4V8099.6"/>
		<path id="path114" class="st4" d="M9939.7,8147.3H8435.3v2358.1h1504.4V8147.3"/>
		<path id="path116" class="st3" d="M12012.7,9730.2h-1691.1v778.9h1691.1V9730.2"/>
		<path id="path118" class="st4" d="M12012.7,8144h-1691.1v1206.6h1691.1V8144"/>
		<path id="path120" class="st3" d="M13219.1,10145.8c-112.5,0-204.1-91.5-204.1-204V8369c0-112.5,91.6-204,204.1-204h3131.3
			c112.6,0,204.1,91.5,204.1,204v1572.8c0,112.5-91.5,204-204.1,204H13219.1z M16350.4,8127.1h-3131.3
			c-133.4,0-241.9,108.5-241.9,241.9v1572.8c0,133.4,108.5,241.9,241.9,241.9h3131.3c133.4,0,242-108.5,242-241.9V8369
			C16592.4,8235.6,16483.8,8127.1,16350.4,8127.1"/>
		<path id="path122" class="st7" d="M13353.5,8563.1l-33.9,17l213.9,427.8l264.4-276.9l314.8,679.9l422.2-396.6l464.4,464.5
			l454-277.4l582.5,607.3l27.4-26.2l-603.6-629.3L15005,9431l-469.3-469.4l-410.6,385.8l-316.2-682.8l-265.6,278.2L13353.5,8563.1"
			/>
		<path id="path124" class="st3" d="M15305,8461.2h-359.6v189.3h359.6V8461.2"/>
		<path id="path126" class="st7" d="M16166.2,8536.9h-624.6v37.8h624.6V8536.9"/>
		<path id="path128" class="st4" d="M16196.4,12713.7c-127,473.1-485.4,851.2-946.6,1005.9l-465-1385.7L16196.4,12713.7"/>
		<path id="path130" class="st3" d="M14784.8,12333.9l-647-1310.9c195-96.4,414.6-150.9,647-150.9
			c807.3,0,1461.7,654.4,1461.7,1461.8c0,131.4-17.6,258.6-50.1,379.8L14784.8,12333.9"/>
		<path id="path132" class="st7" d="M15249.8,13719.6c-146.1,49.1-302.4,76-465,76c-807.3,0-1461.8-654.4-1461.8-1461.7
			c0-575,332.1-1072.1,814.8-1310.9l647,1310.9L15249.8,13719.6"/>
		<path id="path134" class="st4" d="M11253.5,11152.5h-2059v154.9h2059V11152.5"/>
		<path id="path136" class="st3" d="M8454.3,11684.4h3539.4v2014.2H8454.3V11684.4z M12031.6,11646.5H8416.4v2090h3615.2V11646.5"/>
		<path id="path138" class="st4" d="M11766.7,13280.2c-120,24.1-238.8-54-314.7-150.3c-36-45.7-65.7-95.7-94.9-146.1
			c-32.4-56-64.3-112.3-103.4-163.6c-74.4-97.5-189.9-179-310.8-160.6c-196.2,29.9-303.5,299.2-501.9,295.7
			c-92.6-1.6-172-65.7-235.2-133.8c-63.1-68.1-120.8-145.5-202.9-188.5c-114.9-60.1-256.7-40.6-375.8,10.6
			c-119.1,51.1-223.5,130.8-336.8,194c-189.7,105.8-405.2,161.8-622.1,167.5v-1022.4h3111.4v940.5v353.6
			C11775.4,13278,11771.2,13279.3,11766.7,13280.2"/>
		<path id="path140" class="st3" d="M9627.1,12643.6c119.1-51.2,260.9-70.7,375.8-10.6c82.1,43,139.8,120.4,202.9,188.5
			c63.2,68.1,142.6,132.2,235.2,133.8c198.4,3.5,305.7-265.8,501.9-295.7c120.9-18.4,236.4,63.1,310.8,160.6
			c39.1,51.3,71,107.6,103.4,163.6c-120.5-5.6-241-11.5-345.5,44.2c-103.8,55.4-172,163.5-275.5,219.5
			c-185.9,100.5-413.3,4.6-598.5-97.2c-110.7-60.9-234.2-126.2-356.8-96.2c-138.7,33.9-220,175.2-335.5,259.5
			c-221.2,161.3-553.3,83-742.4-115.3l-0.4-0.4c-22.6-23.7-34.3-54.2-34.3-85.4v-107.4c216.8-5.7,432.4-61.7,622.1-167.5
			C9403.6,12774.4,9508,12694.7,9627.1,12643.6"/>
		<path id="path142" class="st3" d="M17585.7,10852.9h3533.9v2843h-3533.9V10852.9z M21163,10809.6h-3620.7v2929.7H21163V10809.6"/>
		<path id="path144" class="st3" d="M18141.3,11244.4h378.5v1274.4h-378.5V11244.4"/>
		<path id="path146" class="st4" d="M18141.3,13162.4v-643.6h378.5v643.6H18141.3"/>
		<path id="path148" class="st4" d="M18822.7,13162.4v-955.9h378.5v955.9H18822.7"/>
		<path id="path150" class="st3" d="M18822.7,11244.4h378.5v962.1h-378.5V11244.4"/>
		<path id="path152" class="st3" d="M19504.1,11244.4h378.5v1496.8h-378.5V11244.4"/>
		<path id="path154" class="st4" d="M19504.1,13162.4v-421.2h378.5v421.2H19504.1"/>
		<path id="path156" class="st3" d="M20185.5,12182.9v-938.5h378.5v938.5H20185.5"/>
		<path id="path158" class="st4" d="M20564,13162.4h-378.5v-979.5h378.5V13162.4"/>
		<path id="path160" class="st8" d="M7468.7,2000.7l-708.6,737.5l1.5,544.1l-860.7-25.6l71-1256L7468.7,2000.7"/>
		<path id="path162" class="st9" d="M6767.3,5326.7l-976.1-130.2l38.5-680.9l935.4,22.7L6767.3,5326.7"/>
		<path id="path164" class="st10" d="M6765.1,4538.3l-935.4-22.7l71.2-1258.9l860.7,25.6L6765.1,4538.3"/>
		<path id="path166" class="st2" d="M6409.8,2525.4l-36.9,78.5l368.8,173.5l36.9-78.5L6409.8,2525.4"/>
		<path id="path168" class="st9" d="M8828,5550.8l-940,36.2l-123.4-719.3l900.5-131.5L8828,5550.8"/>
		<path id="path170" class="st8" d="M9037.7,2730.9l-578.4,976.2L8534,4081c-255.1,58.5-648.9,148.4-870.5,197.9l-194.9-1135.8
			L9037.7,2730.9"/>
		<path id="path172" class="st10" d="M8665.1,4736.2l-900.5,131.5l-101-588.8c221.6-49.5,615.4-139.4,870.5-197.9L8665.1,4736.2"/>
		<path id="path174" class="st2" d="M8108,3543l-27.7,82.2l365.2,123l27.7-82.3L8108,3543"/>
		<path id="path176" class="st11" d="M9457.1,5442.2c0,0-390.4-491.5-1113.6-332.3c-722.8,158.8-592.6-260.3-997.8-347.1
			c-404.8-86.7-1532.7,621.7-1908.8-43.3c0,0-223.9,2518.3-121.9,4112.2c27.8,430.3,79,793.4,165.3,1021.2l1730.5,23.8l380.9,5.3
			c0,0,1.3-8.3,4.3-24.8c6.5-34.2,19.5-104.1,41.2-203.9C7778.6,8997,8274.9,7050.4,9457.1,5442.2"/>
		<path id="path178" class="st12" d="M7637.2,9653.3c-387-255.5-1193.9-694.5-2322.3-821.6c27.8,430.3,79,793.4,165.3,1021.2
			l1730.5,23.8l385.2-19.5C7602.5,9823,7615.5,9753.1,7637.2,9653.3"/>
		<path id="path180" class="st2" d="M3829.8,8058l417,1414.8l1893.4-558.1l-417-1414.8L3829.8,8058"/>
		<path id="path182" class="st3" d="M3856.8,8072.6l1851.8-545.8L6113.3,8900l-1851.8,545.9L3856.8,8072.6z M5737.9,7473
			l-1935,570.3l429.3,1456.4l1935-570.3L5737.9,7473"/>
		<path id="path184" class="st3" d="M5686.5,8372.9l-41.6,12.2l124.2,421.3l41.6-12.2L5686.5,8372.9"/>
		<path id="path186" class="st3" d="M5251.7,7856.5l-41.6,12.3l299,1014.3l41.6-12.3L5251.7,7856.5"/>
		<path id="path188" class="st3" d="M4991.6,7933.2l-41.6,12.3l299,1014.3l41.6-12.3L4991.6,7933.2"/>
		<path id="path190" class="st3" d="M4731.5,8009.9l-41.6,12.2l299,1014.3l41.6-12.2L4731.5,8009.9"/>
		<path id="path192" class="st3" d="M4542,8325.8l-41.6,12.3l228.4,775l41.6-12.3L4542,8325.8"/>
		<path id="path194" class="st10" d="M8686.1,12441.4c0,0,53.5,515.5,101.6,506.8c48.1-8.7,42.8-134.7,42.8-134.7
			s112.5,287.5,164.8,287.2c52.3-0.3-1.1-117.5-1.1-117.5s58.1,117.5,101.5,108.5c43.4-9.1,7.8-108.8,7.8-108.8s45.4,96.3,89.3,79.2
			c44-17.1,16.3-96,16.3-96s24,62.4,65,20.8c41-41.6-169.3-645.2-169.3-645.2l-296.3-84.6L8686.1,12441.4"/>
		<path id="path196" class="st7" d="M9106.2,12340c0,0-258.6-1063.3-910.6-1373.9c-152.7-73.3-327.1-105-524.5-72l-116.7,207.8
			l-765.3,1361.3l267.2,93.7c0,0,600.4-223.8,925.8-722.7c0,0,303.7,28.6,708.4,636L9106.2,12340"/>
		<path id="path198" class="st8" d="M8195.6,10966.1c-152.7-73.3-327.1-105-524.5-72l-116.7,207.8l29.9,508
			C7584.4,11609.9,8026.9,11358.7,8195.6,10966.1"/>
		<path id="path200" class="st10" d="M5502,8914.7c0,0-58.5-500.5-109.7-492.1c-51.2,8.6-45,134.5-45,134.5s-121.1-288-176.8-288
			c-55.7,0.1,1.7,117.6,1.7,117.6s-62.4-117.8-108.6-109c-46.2,8.9-7.8,108.8-7.8,108.8s-48.8-96.6-95.5-79.7
			c-46.8,16.9-17,96-17,96s-25.9-62.6-69.3-21.1c-43.4,41.4,183.3,646.2,183.3,646.2l316,86L5502,8914.7"/>
		<path id="path202" class="st7" d="M6539.6,12546.2c-1283.4-155.4-1661.2-1934.1-1514.8-3604.3l477.2-29
			c0,0,79.5,1634.1,737.5,2415l549.5,1135.2L6539.6,12546.2"/>
		<path id="path204" class="st7" d="M6789,12463.1l889.3-600.2c0,0,245.8-1149.6,231.4-2169.1c0,0-1720.8-636.3-2574,28.9
			l672.4,2183.6L6789,12463.1"/>
		<path id="path206" class="st8" d="M7299.5,13502.4c82.4,287.5-206.8,623.7-759.9,338.1c0,0-549.5-94-451.9-1048.4l578.4-21.7
			L7299.5,13502.4"/>
		<path id="path208" class="st8" d="M6655.2,13860.3c75.6,303.7-254.3,352.3-309.3,166.1c-7.3-24.9-168.1,63.8-213.1-81
			c-51.5-166,127.6-276.5,329.9-234.9L6655.2,13860.3"/>
		<path id="path210" class="st10" d="M7056.4,13128.3v-571.4l-249.5-350.5l-267.2,339.7l14.3,593L7056.4,13128.3"/>
		<path id="path212" class="st8" d="M7056.4,12933v-366.5c-178.7,77.6-255.5,312.3-255.5,312.3L7056.4,12933"/>
		<path id="path214" class="st10" d="M7299.5,13502.4c0,0,177.7-938.1-498.5-623.6l-222.1,254.9l138.2,515.2l355.4,86.7
			L7299.5,13502.4"/>
		<path id="path216" class="st8" d="M7299.5,13502.4c0,0-141.7,220.6-318.9,113.9c-177.1-106.6-168.1-480.8-352.5-386.8
			c-184.4,94-77.7,383.2-77.7,383.2l271.1,206.1l303.7-34.4L7299.5,13502.4"/>
		<path id="path218" class="st10" d="M6692.3,13259.3c40.4-70,23.5-155.5-37.9-191c-61.4-35.4-143.9-7.4-184.4,62.7
			c-40.4,70-23.5,155.5,37.9,190.9C6569.3,13357.4,6651.9,13329.4,6692.3,13259.3"/>
		<path id="path220" class="st8" d="M6897.5,11899.1c0-47.9-38.9-86.8-86.8-86.8s-86.8,38.9-86.8,86.8s38.8,86.8,86.8,86.8
			S6897.5,11947,6897.5,11899.1"/>
		<path id="path222" class="st8" d="M5573.9,9577.6l-42.6,8.3c0.6,3.2,63.8,325.1,169.9,685.3c143.2,485.8,292.5,806.4,443.6,953
			l30.2-31.2C5826.1,10854.6,5576.4,9590.3,5573.9,9577.6"/>
		<path id="path224" class="st8" d="M5413.1,10602c-79.7,59.7-266.3,53.5-268.2,53.5l-1.6,43.3c8.3,0.3,204,6.8,295.8-62.1
			L5413.1,10602"/>
		<path id="path226" class="st8" d="M24236,3323.8l-14.5-824.2l-188-498.9H25053l-57.8,1344.8L24236,3323.8"/>
		<path id="path228" class="st8" d="M22735.7,3237.1v-683.3l-802.6-553.1h1616l-97.6,1312.3L22735.7,3237.1"/>
		<path id="path230" class="st2" d="M22951.6,2334.9l-242.2,184.4l52.6,69l242.2-184.4L22951.6,2334.9"/>
		<path id="path232" class="st7" d="M24091.3,9939.7l-4.4-16.5l-144-567.9l-314.1-1237.7c-43.8-197.4-76.8-410.4-101.1-633.4
			c-153.1-1408.6,44.7-3209,147.5-3985.5c26.9-203.9-131.9-384.4-337.5-384.4h-571.4c-131.4,0-251.1,75.9-308,194.4
			c-728.4,1525.3-609.9,3803.3-463.7,4360.8c231.2,881.9,390.4,2197.7,390.4,2197.7l485.5,20.8L24091.3,9939.7"/>
		<path id="path234" class="st7" d="M25184.9,3512.5c-4.8-196-164.8-352.6-360.9-352.6h-489.4c-180.9,0-334,134-357.5,313.6
			c-93.2,711.5-320.5,2504-449.4,4010.7c-67.2,790.4-107.1,1501.9-86.3,1937.5c7.4,165.3,23.8,290.6,51.2,365.7l594.3,135.8
			l605.2,137.9c0,0,150.1-160.1,288.1-1012.5C25123.8,8159.2,25253.5,6515.5,25184.9,3512.5"/>
		<path id="path236" class="st8" d="M23466,6280c-26.8,555.6-9.8,1029.3,52.2,1448.2c19.9,134.8,91,256.8,200.1,343.5l406.6,323.2
			l27-34l-406.6-323.2c-100.4-79.8-165.9-192-184.2-315.9c-61.5-416-78.5-887-51.8-1439.7L23466,6280"/>
		<path id="path238" class="st8" d="M22246.7,6100.5l-5.4,43c272.4,33.8,505.9,38.6,713.8,14.5l-5-43.1
			C22745.7,6138.6,22515.6,6133.8,22246.7,6100.5"/>
		<path id="path240" class="st8" d="M24198.9,6201.7l-5.3,43c272.4,33.9,505.9,38.6,713.7,14.5l-5-43
			C24698,6239.8,24467.9,6235.1,24198.9,6201.7"/>
		<path id="path242" class="st8" d="M23001,3629.7c-371,0-645.9,66.1-650.1,67.1l10.4,42.2c6.3-1.6,637.6-153.1,1275.9,8.5
			l10.7-42.1C23422.6,3648.4,23198.2,3629.7,23001,3629.7"/>
		<path id="path244" class="st8" d="M24529.4,3627.2c-58.6,0-114.1,1.8-164.6,4.4c-239.9,12.6-422.7,47.8-424.5,48.2l8.3,42.6
			c7.2-1.4,721-137.3,1196.1,38.4l15-40.7C24962.9,3647.3,24728.3,3627.2,24529.4,3627.2"/>
		<path id="path246" class="st13" d="M24980.2,9048.6c-276.4,147.5-657.7,243.8-1037.3,306.7c-170.5,28.6-341,49.9-501.5,66.4
			c-508,51.6-915.4,51.6-915.4,51.6l344.5,414.7l1220.8,51.7l-4.4-16.5l605.2,137.9C24692.1,10061.1,24842.2,9901,24980.2,9048.6"/>
		<path id="path248" class="st9" d="M23342.5,13204.6v-837.7h-502v837.7H23342.5"/>
		<path id="path250" class="st8" d="M23075.7,12856.3c0,0-50.8-182.7-235.2-307.6v365.7L23075.7,12856.3"/>
		<path id="path252" class="st9" d="M22581.7,13632.1l-35.3-352.6c0,0-164.2-220.4-61.7-220.4c110.2,0,92.6-44,92.6-44
			s-61.7-458.4,498-158.7l119,687.6L22581.7,13632.1"/>
		<path id="path254" class="st8" d="M22581.7,13632.1c0,0,152.1,19.8,191.7-141c39.7-160.9,92.6-260.1,227-147.7l147.7,242.4
			l-253.5,105.8L22581.7,13632.1"/>
		<path id="path256" class="st8" d="M22581.7,13632.1c0,114.6,135.9,387.9,564.2,315.2c409.3-69.6,473.8-643.5,262.2-905.8
			c0,0-108-169.7-253.4,141l-249.1,335l-52.8,105.8L22581.7,13632.1"/>
		<path id="path258" class="st9" d="M23177.2,13203.5c-40.5-70.1-122.8-98.3-184-63c-61.1,35.3-77.8,120.7-37.4,190.8
			c40.5,70.1,122.9,98.3,184,63S23217.7,13273.6,23177.2,13203.5"/>
		<path id="path260" class="st12" d="M24127.5,12549.8c961.7-310.9,1720.9-1612.4,831.5-1634c-889.3-21.7-1431.6,802.5-1431.6,802.5
			L24127.5,12549.8"/>
		<path id="path262" class="st9" d="M19872.3,11557.1c0,0-475.1,207.1-491.2,160.9c-16-46.2,96.2-103.5,96.2-103.5
			s-305.6,43.5-331.1-2.2c-25.4-45.7,102.9-56.9,102.9-56.9s-130.9,7.3-144.4-35c-13.4-42.2,90.9-60.2,90.9-60.2
			s-106.2,7.9-112.9-38.8c-6.8-46.7,75.5-61.5,75.5-61.5s-66.2,9.8-50.1-46.3c16.1-56.2,645-170.1,645-170.1l219.5,216.4
			L19872.3,11557.1"/>
		<path id="path264" class="st11" d="M24621.4,9647.3l-2147-234.3c-180.9-19.5-337.5,124.9-331.9,307.1l26.9,885.9l12.6,408.2
			l0.4,10c0,0-15.6-18.6-46.8-47.7l-0.9-0.9c-20.4-18.6-47.3-41.6-80.7-66.8c-285-215.2-1045.1-584.8-2301,234.7l119.3,413.4
			l1355.7-55.5c0,0,607.8,491.1,1147.5,828.2c352.7,220.4,760.9,342.3,1176.5,331.4c187.8-4.7,389.6-34.7,575.7-111
			c457.7-189.2,684.6-1877.6,759.2-2573C24904.7,9812.5,24785.8,9665,24621.4,9647.3"/>
		<path id="path266" class="st12" d="M21078.3,11102.4c-39.2,269.4,129,410,136.1,415.8l27.5-33.6c-0.4-0.3-39.8-33.1-74.1-95.7
			c-45.8-83.5-61.5-177.8-46.5-280.2L21078.3,11102.4"/>
		<path id="path268" class="st12" d="M22374.2,11176.1c0,0-13.5-349.7-204.8-570.1l12.6,408.2
			C22253.6,11072.4,22335.6,11140.5,22374.2,11176.1"/>
		<path id="path270" class="st12" d="M21738.5,10710.1l-8.5,42.6c314,62.7,736.9,588.8,741.1,594.2l33.9-27.1
			c-1.1-1.4-109.7-137-256.8-278.7C22049.1,10849.3,21877.6,10737.9,21738.5,10710.1"/>
		<path id="path272" class="st8" d="M28642.9,1968.1h-27114v65.1h27114V1968.1"/>
	</g>
</g>
</svg>
