<?xml version="1.0" encoding="utf-8"?>
<!-- Generator: Adobe Illustrator 24.0.1, SVG Export Plug-In . SVG Version: 6.00 Build 0)  -->
<svg version="1.1"
	 id="svg2" xmlns:cc="http://creativecommons.org/ns#" xmlns:dc="http://purl.org/dc/elements/1.1/" xmlns:inkscape="http://www.inkscape.org/namespaces/inkscape" xmlns:rdf="http://www.w3.org/1999/02/22-rdf-syntax-ns#" xmlns:sodipodi="http://sodipodi.sourceforge.net/DTD/sodipodi-0.dtd" xmlns:svg="http://www.w3.org/2000/svg"
	 xmlns="http://www.w3.org/2000/svg" xmlns:xlink="http://www.w3.org/1999/xlink" x="0px" y="0px" viewBox="0 0 2666.7 2666.7"
	 style="enable-background:new 0 0 2666.7 2666.7;" xml:space="preserve">
<style type="text/css">
	.st0{fill:#D1D1FF;}
	.st1{fill:#FFFFFF;}
	.st2{fill:#9192FF;}
	.st3{fill:#F5F5FF;}
	.st4{fill:#3335CF;}
	.st5{fill:#1B1B43;}
	.st6{fill:#EBEBFF;}
	.st7{fill:#2C2DA5;}
	.st8{fill:#FFA121;}
	.st9{fill:#FFBC96;}
	.st10{fill:#FFA988;}
	.st11{fill:#D28572;}
</style>
<sodipodi:namedview  bordercolor="#666666" borderopacity="1" gridtolerance="10" guidetolerance="10" id="namedview4" inkscape:pageopacity="0" inkscape:pageshadow="2" inkscape:window-height="480" inkscape:window-width="640" objecttolerance="10" pagecolor="#ffffff">
	</sodipodi:namedview>
<g id="g10" transform="matrix(1.3333333,0,0,-1.3333333,0,2666.6667)" inkscape:groupmode="layer" inkscape:label="ink_ext_XXXXXX">
	<g id="g12" transform="scale(0.1)">
		<path id="path16" class="st0" d="M16390.7,15963.9c0-469.4-380.6-850-850-850c-469.5,0-850.1,380.6-850.1,850
			c0,469.5,380.6,850.1,850.1,850.1C16010.1,16814,16390.7,16433.4,16390.7,15963.9"/>
		<path id="path18" class="st1" d="M15628.1,15583.5v-117.7h-149.4v112.4c-106,6.4-208.8,34.9-272.4,74.2l80.5,182.3
			c70-41.4,163.2-67.9,244.8-67.9c71.1,0,96.5,14.9,96.5,40.3c0,93.3-410.1,18.1-410.1,294.6c0,119.8,86.9,220.5,260.7,244.8v115.5
			h149.4v-113.3c78.4-7.4,154.7-27.6,215.1-61.5l-75.2-181.2c-73.2,37.1-142,55.1-206.7,55.1c-73.1,0-96.4-21.2-96.4-46.7
			c0-89,410.1-14.8,410.1-288.2C15875,15711.8,15792.3,15612.1,15628.1,15583.5"/>
		<path id="path20" class="st0" d="M14577.8,14809.1c0-284.4-230.6-515-515-515s-515,230.6-515,515s230.6,515,515,515
			S14577.8,15093.5,14577.8,14809.1"/>
		<path id="path22" class="st1" d="M14115.8,14578.6v-71.2h-90.6v68c-64.2,3.9-126.4,21.2-164.9,45l48.7,110.4
			c42.4-25.1,98.9-41.1,148.3-41.1c43.1,0,58.5,9,58.5,24.4c0,56.5-248.5,10.9-248.5,178.5c0,72.5,52.7,133.5,157.9,148.3v69.9h90.6
			v-68.6c47.4-4.5,93.7-16.7,130.3-37.3l-45.6-109.8c-44.3,22.5-86,33.4-125.2,33.4c-44.3,0-58.4-12.8-58.4-28.2
			c0-53.9,248.4-9,248.4-174.6C14265.3,14656.3,14215.3,14596,14115.8,14578.6"/>
		<path id="path24" class="st0" d="M15834.4,14478.8c0-219.4-177.9-397.3-397.4-397.3c-219.4,0-397.3,177.9-397.3,397.3
			c0,219.5,177.9,397.4,397.3,397.4C15656.5,14876.2,15834.4,14698.3,15834.4,14478.8"/>
		<path id="path26" class="st1" d="M15477.9,14301v-55h-69.9v52.5c-49.5,3-97.5,16.4-127.3,34.7l37.7,85.2
			c32.7-19.3,76.2-31.7,114.4-31.7c33.2,0,45.1,6.9,45.1,18.8c0,43.6-191.7,8.5-191.7,137.7c0,56,40.6,103.1,121.8,114.5v54h69.9
			v-53c36.6-3.5,72.3-12.9,100.6-28.8l-35.2-84.7c-34.2,17.4-66.4,25.8-96.6,25.8c-34.2,0-45.1-9.9-45.1-21.8
			c0-41.6,191.7-7,191.7-134.7C15593.3,14361,15554.7,14314.4,15477.9,14301"/>
		<path id="path28" class="st2" d="M13837.5,15794.1h-58.1v416.5h58.1V15794.1"/>
		<path id="path30" class="st2" d="M14016.7,15973.3h-416.5v58.1h416.5V15973.3"/>
		<path id="path32" class="st2" d="M14355.9,16699.6h-87.3v625.5h87.3V16699.6"/>
		<path id="path34" class="st2" d="M14625,16968.7h-625.5v87.3h625.5V16968.7"/>
		<path id="path36" class="st2" d="M16317.6,13652.5h-66.1v473.6h66.1V13652.5"/>
		<path id="path38" class="st2" d="M16521.4,13856.3h-473.6v66.1h473.6V13856.3"/>
		<path id="path40" class="st3" d="M8452.5,14988.7c-425.9,0-771.2,345.3-771.2,771.2s345.3,771.1,771.2,771.1
			c425.9,0,771.2-345.2,771.2-771.1C9223.6,15334,8878.4,14988.7,8452.5,14988.7"/>
		<path id="path42" class="st3" d="M10292.9,5588.7c-479.3,0-867.9,388.6-867.9,867.9c0,62.5,6.6,123.4,19.1,182.1h1697.6
			c12.5-58.7,19.1-119.6,19.1-182.1C11160.8,5977.3,10772.3,5588.7,10292.9,5588.7"/>
		<path id="path44" class="st2" d="M8766.1,8488.1c-41.2,2-83,2.5-124,1.4l-0.7,25c41.7,1.1,84,0.6,125.8-1.4L8766.1,8488.1z
			 M8395.6,8464.5l-4.4,24.6c41,7.3,82.9,13.2,124.6,17.4l2.5-24.8C8477.3,8477.5,8436,8471.7,8395.6,8464.5z M9012,8457.6
			c-40.2,8.1-81.4,14.8-122.4,19.9l3.1,24.8c41.6-5.1,83.4-11.9,124.2-20.2L9012,8457.6z M8155.7,8402.6l-8.1,23.6
			c39.5,13.5,80.1,25.7,120.6,36.1l6.3-24.2C8234.6,8427.8,8194.6,8415.9,8155.7,8402.6L8155.7,8402.6z M9250.4,8390.3
			c-38.7,14.1-78.3,27-117.9,38.2l6.8,24c40.2-11.3,80.5-24.4,119.8-38.8L9250.4,8390.3z M7928.1,8305.1l-11.6,22.2
			c37.1,19.3,75.3,37.4,113.6,53.9l9.9-23C8002.3,8342,7964.7,8324.1,7928.1,8305.1L7928.1,8305.1z M9476.1,8287.4
			c-36.1,19.9-73.4,38.7-110.9,55.7l10.4,22.8c38-17.3,75.9-36.4,112.6-56.6L9476.1,8287.4z M7717.8,8174.3l-14.8,20.2
			c33.7,24.7,68.8,48.3,104.3,70.4l13.2-21.2C7785.5,8221.9,7751,8198.6,7717.8,8174.3z M9683.6,8151.8
			c-32.7,25-66.7,49.2-101.2,71.7l13.7,20.9c35-22.9,69.6-47.4,102.7-72.8L9683.6,8151.8z M7529.4,8013.4l-17.6,17.7
			c29.7,29.5,60.8,58.2,92.6,85.3l16.2-19C7589.3,8070.7,7558.6,8042.4,7529.4,8013.4z M9868.4,7986.5
			c-28.6,29.7-58.6,58.7-89.3,86.1l16.7,18.6c31.1-27.8,61.6-57.2,90.6-87.4L9868.4,7986.5z M7367.1,7826l-20.1,14.9
			c24.9,33.5,51.4,66.6,78.8,98.2l18.9-16.4C7417.8,7891.6,7391.7,7859,7367.1,7826z M10026.2,7795.5
			c-23.8,33.7-49.1,66.8-75.3,98.5l19.3,15.9c26.6-32.2,52.3-65.8,76.5-99.9L10026.2,7795.5z M7234.8,7616.3l-22.1,11.7
			c19.6,36.9,40.8,73.6,63.1,109l21.1-13.4C7275,7688.8,7254.1,7652.7,7234.8,7616.3L7234.8,7616.3z M10153.6,7583.1
			c-18.4,36.7-38.5,73.2-59.7,108.6l21.5,12.8c21.5-35.8,41.8-72.9,60.5-110.2L10153.6,7583.1z M7135.7,7388.9l-23.6,8.3
			c13.8,39.5,29.2,79,45.9,117.3l22.9-10C7164.5,7466.7,7149.3,7427.9,7135.7,7388.9L7135.7,7388.9z M10247.3,7353.8
			c-12.6,39.2-26.9,78.4-42.5,116.5l23.1,9.5c15.9-38.8,30.4-78.5,43.2-118.3L10247.3,7353.8z M7072.3,7149.4l-24.6,4.6
			c7.6,41.1,16.9,82.4,27.6,122.8l24.2-6.4C7088.9,7230.6,7079.8,7189.9,7072.3,7149.4z M10305.3,7112.9
			c-6.5,40.7-14.8,81.6-24.4,121.6l24.3,5.8c9.8-40.6,18.1-82.1,24.8-123.4L10305.3,7112.9z M7045.8,6903.1l-25,0.8
			c1.3,41.8,4.3,84.1,8.7,125.5l24.9-2.7C7050,6985.9,7047.1,6944.3,7045.8,6903.1L7045.8,6903.1z M10326.3,6866
			c-0.4,41.3-2.4,83-5.9,123.9l24.9,2.1c3.6-41.5,5.6-83.8,6-125.7L10326.3,6866z M10346.7,6723.6l-24.9,1.8
			c3,41,4.6,82.7,4.6,123.9h25C10351.4,6807.4,10349.8,6765.1,10346.7,6723.6L10346.7,6723.6z M7031.4,6652.5
			c-4.9,41.5-8.3,83.7-10,125.5l25,1c1.7-41.1,5-82.7,9.8-123.5L7031.4,6652.5z M10309.1,6474.9l-24.4,5.5
			c9.2,40.1,17,81.1,23.2,121.8l24.7-3.7C10326.4,6557.1,10318.4,6515.5,10309.1,6474.9L10309.1,6474.9z M7079.7,6405.6
			c-11.1,40.3-20.8,81.6-28.8,122.6l24.5,4.8c7.9-40.4,17.4-81,28.4-120.7L7079.7,6405.6z M10234.2,6234.5l-23.2,9.3
			c15.2,38.2,29.1,77.6,41.4,117l23.9-7.5C10263.8,6313.4,10249.7,6273.4,10234.2,6234.5L10234.2,6234.5z M7164.7,6169
			c-17.1,38.1-32.9,77.4-47,116.6l23.5,8.5c13.9-38.7,29.5-77.3,46.3-114.9L7164.7,6169z M10123.8,6008.3l-21.6,12.6
			c20.8,35.6,40.6,72.4,58.6,109.4l22.5-11C10164.9,6081.7,10144.9,6044.4,10123.8,6008.3z M7284.6,5948
			c-22.7,35.2-44.3,71.6-64.1,108.2l22,12c19.6-36.1,40.8-72,63.2-106.7L7284.6,5948z M9980.5,5801.4l-19.4,15.7
			c26,32.1,51,65.5,74.5,99.3l20.5-14.3C10032.3,5867.8,10006.8,5833.9,9980.5,5801.4z M7436.4,5747.4
			c-27.7,31.4-54.5,64.2-79.7,97.5l19.9,15.1c24.8-32.8,51.3-65.1,78.5-96L7436.4,5747.4z M9807.8,5618.3l-16.8,18.5
			c30.4,27.7,60.1,57,88.4,86.9l18.2-17.1C9868.9,5676.2,9838.7,5646.5,9807.8,5618.3L9807.8,5618.3z M7616.6,5571.9
			c-32,26.8-63.5,55.2-93.4,84.4l17.5,17.9c29.5-28.7,60.4-56.7,92-83.2L7616.6,5571.9z M9609.8,5463.3l-13.9,20.8
			c34.3,22.9,68,47.3,100.4,72.7l15.4-19.7C9678.8,5511.3,9644.6,5486.5,9609.8,5463.3z M7821.2,5425.2c-35.7,21.7-71,45.1-105,69.5
			l14.6,20.3c33.5-24,68.3-47,103.5-68.4L7821.2,5425.2z M9390.8,5339.8l-10.6,22.6c37.3,17.5,74.3,36.5,110.2,56.7l12.3-21.7
			C9466.2,5376.9,9428.6,5357.5,9390.8,5339.8z M8045.6,5311c-38.6,16.1-77.1,33.9-114.4,52.9l11.3,22.3
			c36.7-18.7,74.6-36.2,112.7-52.1L8045.6,5311z M9155.5,5250.8l-7,24c39.5,11.6,79,24.9,117.5,39.4l8.8-23.4
			C9235.8,5276.1,9195.7,5262.6,9155.5,5250.8z M8284.6,5232.2c-40.7,10.1-81.3,21.8-121,34.9l7.8,23.7
			c39-12.9,79.1-24.4,119.1-34.3L8284.6,5232.2z M8909.5,5198.5l-3.3,24.8c40.8,5.5,81.9,12.6,122.2,21.2l5.2-24.5
			C8992.7,5211.3,8950.9,5204.1,8909.5,5198.5z M8532.7,5190.6c-41.7,3.7-83.7,9.2-124.8,16.1l4.1,24.6c40.5-6.8,81.9-12.1,123-15.8
			L8532.7,5190.6z M8685.7,5183.6c-9.1,0-18.2,0.1-27.3,0.2l0.4,25c41.2-0.6,83,0.3,124,2.6l1.5-24.9
			C8751.6,5184.6,8718.5,5183.6,8685.7,5183.6"/>
		<path id="path46" class="st2" d="M7171.7,17135.1l-3.6,24.7c41.4,6.1,83.8,9.8,125.9,10.9l0.7-25
			C7253.5,17144.6,7212.1,17141.1,7171.7,17135.1z M7539.9,17123.1c-40,8.6-81,14.9-122,18.7l2.3,24.8
			c41.9-3.8,83.9-10.2,124.9-19.1L7539.9,17123.1z M6934.1,17070.1l-9.5,23.2c38.9,15.9,79.2,29.6,119.7,40.6l6.6-24.1
			C7011.4,17099,6972.1,17085.7,6934.1,17070.1L6934.1,17070.1z M7772.8,17042.5c-36.9,18-75.2,34-114,47.4l8.2,23.6
			c39.7-13.7,79-30.1,116.8-48.5L7772.8,17042.5z M6719,16950.3l-14.7,20.2c34,24.7,69.8,47.6,106.5,68l12.2-21.8
			C6787.2,16996.7,6752.2,16974.4,6719,16950.3L6719,16950.3z M7979.7,16908.6c-31.5,26.3-65,50.9-99.4,73.2l13.6,21
			c35.3-22.8,69.5-48,101.8-74.9L7979.7,16908.6z M6538.5,16782.7l-19.1,16.2c27.2,32,56.5,62.7,87.4,91.3l17-18.3
			C6593.7,16844,6565,16814,6538.5,16782.7z M8148.9,16729.6c-24.4,32.9-51,64.7-79.2,94.6l18.2,17.1c28.9-30.5,56.2-63.1,81.2-96.8
			L8148.9,16729.6z M6402.7,16577l-22.4,11.2c18.8,37.6,40,74.4,63.2,109.5l20.9-13.7C6441.8,16649.7,6421,16613.7,6402.7,16577
			L6402.7,16577z M8270.7,16515.6c-15.8,37.8-34.2,75-54.5,110.6l21.7,12.4c20.8-36.5,39.5-74.6,55.8-113.3L8270.7,16515.6z
			 M6320,16344.9l-24.4,5.5c9.2,41,21,81.9,35.2,121.5l23.5-8.4C6340.6,16424.9,6329,16385,6320,16344.9L6320,16344.9z
			 M8337.8,16278.6c-6.3,40.6-15.2,81.1-26.4,120.6l24,6.8c11.4-40.4,20.5-82,27-123.5L8337.8,16278.6z M6270.2,16099.4
			c-0.1,6.3-0.2,12.7-0.2,19.1c0,35.7,1.8,71.8,5.4,107.1l24.9-2.5c-3.5-34.5-5.3-69.7-5.3-104.6c0-6.2,0-12.5,0.2-18.7
			L6270.2,16099.4z M8367.8,15992.3l-24.8,3c4.8,40.6,7.3,82,7.3,123.2c0,12.4-0.2,24.9-0.7,37.3l25,0.9c0.5-12.7,0.7-25.5,0.7-38.2
			C8375.2,16076.3,8372.7,16033.9,8367.8,15992.3L8367.8,15992.3z M6304.7,15849.5c-10.7,40.6-19,82.3-24.8,123.9l24.8,3.4
			c5.6-40.6,13.7-81.3,24.2-120.9L6304.7,15849.5z M8307.9,15747.2l-23.4,8.8c14.5,38.4,26.8,78,36.5,117.9l24.3-5.9
			C8335.3,15827.1,8322.7,15786.5,8307.9,15747.2L8307.9,15747.2z M6397.9,15615.1c-20.1,36.9-38.2,75.3-53.7,114.3l23.2,9.3
			c15.1-38.1,32.8-75.6,52.4-111.6L6397.9,15615.1z M8191,15523.4l-20.6,14.1c23.2,33.9,44.7,69.5,63.6,105.8l22.2-11.6
			C8236.7,15594.5,8214.8,15558.1,8191,15523.4L8191,15523.4z M6544.4,15409.7c-28.3,31-55,64.1-79.4,98.3l20.4,14.5
			c23.8-33.4,49.9-65.6,77.5-96L6544.4,15409.7z M8024.4,15333.9l-16.7,18.6c30.5,27.4,59.8,56.9,86.9,87.7l18.8-16.5
			C8085.6,15392.1,8055.7,15361.9,8024.4,15333.9L8024.4,15333.9z M6735.4,15244.8c-34.8,23.4-68.6,49.2-100.4,76.7l16.3,18.9
			c31.1-26.8,64.1-52,98.1-74.9L6735.4,15244.8z M7817.7,15189.3l-11.8,22.1c36.1,19.2,71.5,41,105.1,64.5l14.3-20.5
			C7890.9,15231.3,7854.6,15209.1,7817.7,15189.3z M6960.2,15129.9c-39.4,14.5-78.4,31.5-115.9,50.7l11.4,22.2
			c36.6-18.7,74.6-35.3,113.1-49.4L6960.2,15129.9z M7582.3,15098.2l-6.1,24.2c39.8,10.1,79.3,22.7,117.5,37.5l9-23.3
			C7663.6,15121.4,7623.1,15108.5,7582.3,15098.2L7582.3,15098.2z M7205.9,15072.3c-41.8,4.6-83.7,11.8-124.6,21.4l5.7,24.3
			c39.9-9.4,80.8-16.4,121.6-20.9L7205.9,15072.3z M7332.1,15065.9l-0.2,25c41.1,0.4,82.6,3.2,123.1,8.4l3.2-24.8
			C7416.7,15069.2,7374.3,15066.3,7332.1,15065.9"/>
		<path id="path48" class="st2" d="M3125,10363.7c-172.3,0-312.5-140.2-312.5-312.5s140.2-312.5,312.5-312.5
			c172.3,0,312.5,140.2,312.5,312.5S3297.3,10363.7,3125,10363.7z M3125,9688.7c-199.9,0-362.5,162.6-362.5,362.5
			s162.6,362.5,362.5,362.5c199.9,0,362.5-162.6,362.5-362.5S3324.9,9688.7,3125,9688.7"/>
		<path id="path50" class="st1" d="M4860.1,6663.7H15250v7681.6H4860.1V6663.7z"/>
		<path id="path52" class="st2" d="M4885.1,6688.7H15225v7631.6H4885.1V6688.7 M15275,6638.7H4835.1v7731.6H15275V6638.7"/>
		<path id="path54" class="st0" d="M6430,7513.7h-850v1644.9h850V7513.7"/>
		<path id="path56" class="st0" d="M7780,7513.7h-850v2465.2h850V7513.7"/>
		<path id="path58" class="st0" d="M9130,7513.7h-850v4157h850V7513.7"/>
		<path id="path60" class="st0" d="M10480,7513.7h-850v2955.9h850V7513.7"/>
		<path id="path62" class="st0" d="M11830,7513.7h-850v4259.5h850V7513.7"/>
		<path id="path64" class="st0" d="M13180,7513.7h-850v4037h850V7513.7"/>
		<path id="path66" class="st0" d="M13680,7513.7h850v5512h-850V7513.7z"/>
		<path id="path68" class="st4" d="M5836.3,8166.4l-22.7,44.6l1419.7,722.3l1464.1,1994.2l1340.4-1403l1378,1378l1336.5-162.4
			l1341.3,1540l37.6-32.8l-1358.7-1560l-1338.5,162.6l-1397-1397l-1334.6,1397L7266.6,8894.1L5836.3,8166.4"/>
		<path id="path70" class="st4" d="M12146.7,13347H7963.4v50h4183.3L12146.7,13347"/>
		<path id="path72" class="st4" d="M10734.6,12797H9375.4v50h1359.2V12797"/>
		<path id="path74" class="st4" d="M4692.2,5194.9c81.5,429.8,28.5,887.2-148.8,1283.1s-477.9,728.1-843.2,931.9
			c185-234.7,232.7-556.8,251.5-862.3c18.8-305.6,17.4-621.1,128.3-903.7s372.5-527.2,658.8-491.8L4692.2,5194.9"/>
		<path id="path76" class="st4" d="M4698.2,5086.5c-81.5,429.8-28.5,887.2,148.8,1283.1s477.9,728.1,843.2,932
			c-185-234.8-232.7-556.8-251.5-862.4c-18.7-305.5-17.4-621-128.2-903.6c-110.9-282.7-372.5-527.3-658.8-491.8L4698.2,5086.5"/>
		<path id="path78" class="st0" d="M4370.3,5291c-184.4,306.8-234.7,700.7-134,1048.7c100.7,348,350.5,643.8,665.3,787.6
			c-66.2-440.1,260.8-865.1,202.3-1306.5c-37.8-285.6-252.4-535.5-516.6-601.6L4370.3,5291"/>
		<path id="path80" class="st2" d="M4504.5,4700.3c-0.8,438.5,150,876,423.2,1227.3c273.1,351.3,667,614.5,1104.9,738.3
			c-248.6-191.6-366.1-497.5-448.7-793.2c-82.6-295.8-145.5-605.4-323.4-859.5c-177.9-254.1-511.7-439.5-815-345.1L4504.5,4700.3"/>
		<path id="path82" class="st2" d="M4642.3,4676.8c0.7,438.5-137.8,876-388.5,1227.3c-250.7,351.3-612.3,614.5-1014.3,738.3
			c228.3-191.6,336.1-497.5,412-793.3c75.9-295.7,133.6-605.3,296.9-859.4c163.3-254.1,469.8-439.5,748.2-345.1L4642.3,4676.8"/>
		<path id="path84" class="st1" d="M5377.9,3180.5H3794.1l-272.3,1649.1h2128.3L5377.9,3180.5"/>
		<path id="path86" class="st2" d="M3810,3199.3h1551.9L5628,4810.9H3543.9L3810,3199.3z M5393.8,3161.8H3778.2l-278.5,1686.6
			h2172.5L5393.8,3161.8"/>
		<path id="path88" class="st1" d="M7475.6,11824.4H2649.8v3790.7h4825.8V11824.4"/>
		<path id="path90" class="st2" d="M2674.8,11849.4h4775.8v3740.7H2674.8V11849.4z M7500.6,11799.4H2624.8v3840.7h4875.8V11799.4"/>
		<path id="path92" class="st0" d="M4393.8,14377.8H3305.4v616.3h1088.4V14377.8"/>
		<path id="path94" class="st2" d="M6832.9,14908.4H4852.8v26.3h1980.1V14908.4"/>
		<path id="path96" class="st0" d="M6832.9,14672.8H4852.8v26.2h1980.1V14672.8"/>
		<path id="path98" class="st0" d="M6832.9,14437.2H4852.8v26.2h1980.1V14437.2"/>
		<path id="path100" class="st0" d="M4044.2,12444h-227.3v704.1h227.3V12444"/>
		<path id="path102" class="st2" d="M4271.5,12444h-227.3v1046.8h227.3V12444"/>
		<path id="path104" class="st0" d="M4892.2,12448.4h-227.3v1160.9h227.3V12448.4"/>
		<path id="path106" class="st2" d="M5119.5,12448.4h-227.3v429.6h227.3V12448.4"/>
		<path id="path108" class="st0" d="M5740.2,12444.9h-227.3v803.9h227.3V12444.9"/>
		<path id="path110" class="st2" d="M5967.5,12444.9h-227.3v981.7h227.3V12444.9"/>
		<path id="path112" class="st0" d="M6588.2,12450.1h-227.3v560.6h227.3V12450.1"/>
		<path id="path114" class="st2" d="M6815.5,12450.1h-227.3v1337.6h227.3V12450.1"/>
		<path id="path116" class="st2" d="M6815.5,12437H3316.4v1411.9h26.2v-1385.7h3472.9V12437"/>
		<path id="path118" class="st5" d="M16813.5,3857.4l150-670.6l-1018.7,1.9l425,366.8l-31.3,333.2L16813.5,3857.4"/>
		<path id="path120" class="st6" d="M16526.4,3399.3l-168.7,141.8l24.1,28.8l168.8-141.8L16526.4,3399.3"/>
		<path id="path122" class="st5" d="M14807.3,3868l75-681.2h-1093.8l500,368.7V3893L14807.3,3868"/>
		<path id="path124" class="st6" d="M14445.2,3399.3l-168.8,141.8l24.2,28.8l168.7-141.8L14445.2,3399.3"/>
		<path id="path126" class="st4" d="M16994.8,3776.2l-162.5-2.3l-482.3-6.5l-267.7-3.7c-262.5,907.2-508.3,1796.5-709.3,2636.7
			c-39.5,164.8-77.2,327.8-112.7,488.3c-132.3,595.2-237.8,1161.5-305,1686.2c-14.5,112.8-27.3,223.5-38,332.3
			c-8.8,86.7-16.3,172.2-22.5,256.5l1200-200c12-113.8,24.7-227.8,38.2-342.5C16313.8,7071.9,16622.5,5443.7,16994.8,3776.2"/>
		<path id="path128" class="st4" d="M15457.3,9001.2l-38-408l-153.3-1642l-5.7-62.5l-290.5-3112.5H14074
			c17.8,1800.5,76.5,3512,312.5,4776.2c17.3,93.3,35.8,183.8,55,272l475.8,82.8L15457.3,9001.2"/>
		<path id="path130" class="st5" d="M15382.5,6286.3l-341.7,1758.3l24.6,4.8l341.6-1758.3L15382.5,6286.3"/>
		<path id="path132" class="st7" d="M15419.3,8593.2L15419.3,8593.2l37.9,407.5c106.5-3.3,213-5.3,319.5-5.3c8.2,0,16.4,0,24.6,0
			c2,0.1,4,0.1,6.1,0.1c33.8,0,70-0.9,107.6-1.8l179.8-30c12-113.8,24.7-227.8,38.2-342.5L15419.3,8593.2"/>
		<path id="path134" class="st7" d="M14917.3,8907.2L14917.3,8907.2c-3.8,37.4-7.4,74.6-10.7,111.6l119.4,1.1
			c142.9-7.7,285.9-14.6,428.9-19.1L14917.3,8907.2"/>
		<path id="path136" class="st7" d="M14386.5,8552.4c17.3,93.3,35.8,183.8,55,272l475.8,82.8l0,0l537.6,93.6c0.8,0,1.6-0.1,2.3-0.1
			l-37.9-407.5l-464-18.3L14386.5,8552.4"/>
		<path id="path138" class="st8" d="M14797.8,10876l459.8,57.5l959.7-201.2l5.5-1730.1c0.1-47.4-19.3-92.8-53.8-125.4
			c-31.7-30-73.7-46.7-117.3-46.9l-1610.2-5.5l-310.3,936.7l298.9,885L14797.8,10876"/>
		<path id="path140" class="st5" d="M15371.3,10496.9c-99.3,0-195.5,35.3-270.5,105.8l12.9,13.7c142.8-134.4,367.2-134.2,533.5,0.4
			l11.8-14.6C15572.2,10532,15470.3,10496.9,15371.3,10496.9"/>
		<path id="path142" class="st8" d="M16398.9,10601.1c-35.1,157.8-164.6,277.2-324.8,299.2l-612.7,84.2l370.9-633.3l114.5-396.4
			l577.4,81.5L16398.9,10601.1"/>
		<path id="path144" class="st9" d="M16647.8,9358.7c-14.5-214.3-144-305.5-308.5-343c-128.1-29.1-277.3-25.8-410.1-22.4
			c-45,1.1-88.1,2.3-127.9,2.1c-258.5-0.7-517,10.5-775.3,24.5l-656.2-6.2l-75,116.7c85.5,120.8,316.7,279,720.7,183.3l1048,237.5
			l-116.7,403.7l577.5,81.3l118.2-533.3C16649.5,9449.4,16651,9401.7,16647.8,9358.7"/>
		<path id="path146" class="st9" d="M13832.3,9794.9l412.5-518.7l75-18.8l61.8,603.8l-422.1,199.2L13832.3,9794.9"/>
		<path id="path148" class="st8" d="M15207.3,10988.7l-602.5-95.3c-166.7-26.4-309.9-133.1-382.8-285.4l-262.5-547.6l422.1-199.2
			l44.4,433.8L15207.3,10988.7"/>
		<path id="path150" class="st10" d="M16339.3,9015.7c-32.8,40.2-52.8,91.7-52.8,148c0,128.7,104.5,233.3,233.3,233.3
			c47.2,0,91.2-14.3,128-38.3C16633.3,9144.4,16503.8,9053.2,16339.3,9015.7L16339.3,9015.7"/>
		<path id="path152" class="st5" d="M14304.1,9129.4l-18.7,2.1l131.3,1164.5l18.6-2.1L14304.1,9129.4"/>
		<path id="path154" class="st5" d="M16054.5,9548.6l-231.2,800l18,5.2l231.2-800L16054.5,9548.6"/>
		<path id="path156" class="st5" d="M15597.4,12357.3c-3.3,42.2-1.2,85.6,11.7,127.1c12.8,41.2,39.6,79.7,78,102.4
			c19,11.2,40.1,18.8,61.8,22.5c21.7,3.8,43.8,3.8,65.5,1.3c43.4-5.1,85-20.8,121.6-44.4c36.5-23.6,67.8-56.4,87.2-96.1
			c19.7-39.5,23.9-86.9,11.6-129.1c-12.1-42.5-37.5-79.1-66.9-110.1c-30-30.6-64.2-56.4-100.3-78.6l-4,6.1
			c34.2,24.2,67,50.6,94.7,81.5c27.7,30.6,50.7,66.1,60.7,105.3c10.2,39,6.5,81.1-11.9,117.1c-17.8,36.2-47.3,66-81.3,88.3
			c-34,22.4-73.2,37.5-113.5,42.6c-40.3,5.2-82.2-0.5-117.3-20.1c-35.2-19.7-60.6-54.1-73.8-92.8c-7-19.3-11.3-39.6-13.9-60.2
			c-2.4-20.6-2.9-41.5-2.6-62.5L15597.4,12357.3"/>
		<path id="path158" class="st5" d="M16002.4,12347.6c0-110.7-89.7-200.4-200.4-200.4s-200.5,89.7-200.5,200.4
			s89.8,200.5,200.5,200.5S16002.4,12458.3,16002.4,12347.6"/>
		<path id="path160" class="st5" d="M15953.8,11238.7l-107.5,164.5l41.5-182l-371-98l-697-28.2l56.2,553.2
			c-178,87.5-304.2,651.5,371.5,746.5c122.8,17.2,248.8,6.3,362.8-42c347.5-147,465-536.7,497-1073.5L15953.8,11238.7"/>
		<path id="path162" class="st9" d="M15374.6,10653.3c-150.4,0-272.3,121.9-272.3,272.3v590.2h544.5v-590.2
			C15646.8,10775.2,15524.9,10653.3,15374.6,10653.3"/>
		<path id="path164" class="st5" d="M15471,11267.9c-58.3-171.9-194.9-252.3-368.8-295.9v256.3L15471,11267.9"/>
		<path id="path166" class="st9" d="M15635.3,12088.7l-17.6-764.6c0,0-321.4-233.9-546.4-166.6c-75.5,22.5-126.8,108.2-161.5,214.9
			c-16.5,50.8-29.3,106.5-39.3,162.5c-35.2,201.3-33.5,406.8-33.5,406.8L15635.3,12088.7"/>
		<path id="path168" class="st5" d="M14977.7,11618.5c0-22.8-13.6-41.2-30.5-41.2c-16.8,0-30.4,18.4-30.4,41.2
			c0,22.7,13.6,41.1,30.4,41.1C14964.1,11659.6,14977.7,11641.2,14977.7,11618.5"/>
		<path id="path170" class="st5" d="M15213,11636.6c0-26.3-15.4-47.7-34.4-47.7s-34.4,21.4-34.4,47.7s15.4,47.6,34.4,47.6
			S15213,11662.9,15213,11636.6"/>
		<path id="path172" class="st5" d="M15290.7,11733.6c-1.2-11.7-40.3-14.4-83.6-6.8c-43.4,7.6-80.4,5.4-73.4,34.2
			c5.7,23.6,40,21.6,83.4,14C15260.4,11767.5,15291.8,11743.8,15290.7,11733.6"/>
		<path id="path174" class="st5" d="M14866.6,11707.4c1.5-11.6,34.8-11,71.3,0c36.5,11.1,68,11.9,60.9,40.1
			c-5.8,23-34.8,18.2-71.3,7.1C14891,11743.5,14865.3,11717.4,14866.6,11707.4"/>
		<path id="path176" class="st10" d="M15351,11448.1c-49.2,0-89.1,39.9-89.1,89c0,49.2,39.9,89.1,89.1,89.1
			c49.2,0,89.1-39.9,89.1-89.1C15440.1,11488,15400.2,11448.1,15351,11448.1"/>
		<path id="path178" class="st10" d="M14909.8,11372.4L14909.8,11372.4c-16.5,50.8-29.3,106.5-39.3,162.5c44.5-4.9,79-42.7,79-88.5
			C14949.5,11415.4,14933.8,11388.5,14909.8,11372.4"/>
		<path id="path180" class="st5" d="M15048.1,11582.1c1-7.9-0.9-16.1-4-23.2c-3.1-7.3-7.2-13.5-11.3-19.2
			c-8.2-11.5-16.2-21.4-18.3-30.4c-1.1-4.3-0.7-8.9,0.4-13.4c1-4.5,3.5-8.5,7.1-12.4c7.2-7.7,18.6-13.5,31-18.1l-0.9-9.7
			c-14.7-1.7-30.7,1.1-44.5,11.3c-6.8,5-12.7,12.5-15.8,21.2c-2.7,8.5-3.9,18.1-1.4,27.1c5.2,17.9,16.9,28.7,26,38.1
			c9.6,9.6,17.8,17.8,21.9,29.4L15048.1,11582.1"/>
		<path id="path182" class="st1" d="M15024.4,11379.3c32.9-104.7,173.5-51.5,184.4,46.9L15024.4,11379.3"/>
		<path id="path184" class="st5" d="M14810.4,11820c235.3,0.4,432.7,22,618.7,112.5c20.1-153.6,86-227.7,175-268.8l187.5,156.3
			l-96.8,315.6l-509.4,28.1l-393.8-196.9L14810.4,11820"/>
		<path id="path186" class="st9" d="M15751.2,11551.9c-50.6-72-132.4-101.8-182.5-66.5c-50.1,35.2-49.7,122.2,1,194.3
			c50.7,72,132.4,101.8,182.5,66.5C15802.4,11711,15801.9,11624,15751.2,11551.9"/>
		<path id="path188" class="st5" d="M15616.7,11563.9c-3.6,13-4.7,26.7-3.1,40.6c1.5,13.9,6.2,28.2,14.8,40.4
			c8.6,12.3,20.8,21.8,34,27.4c13.2,5.6,27.1,7.8,40.7,7l1.7-9.7c-11.7-5.4-22.6-10.5-32.2-16.8c-9.5-6.2-17.6-13.5-23.9-22.2
			c-6.4-8.7-10.7-19.1-14.2-30.3c-3.4-11.2-5.5-23.3-8-35.9L15616.7,11563.9"/>
		<path id="path190" class="st8" d="M15865.6,12155.4c-26,15.1-48.2,32.6-70.2,49.8l-63.4,52.3c-20.8,17.2-41.4,34.3-62.8,50.7
			c-21.4,16.7-43.5,32.2-68.2,49.3c30,3.2,60.1-3.9,87.7-15.1c27.6-11.6,52.8-27.7,75.3-46.5c22.6-18.9,42.5-40.3,59.7-63.6
			C15840.7,12208.7,15855.7,12183.7,15865.6,12155.4"/>
		<path id="path192" class="st5" d="M14978.1,8822h-662.5v195.9h662.5V8822"/>
		<path id="path194" class="st6" d="M14528.1,8822h-1500l-658.3,1421.9h1500L14528.1,8822"/>
		<path id="path196" class="st9" d="M13972.9,8885.6c-35.2-6.4-56.2-35.3-57.9-69.6v155c0,31.3-22.3,59.8-53.3,63.3
			c-35.6,4.1-65.6-22.8-67.2-57.1v62.5c0,31.6-22.8,60.4-54.2,63.5c-36.2,3.7-66.7-24.6-66.7-60.1v-65.9
			c-1.6,34.3-31.6,61.2-67.2,57.1c-31-3.5-53.3-32-53.3-63.3v-123c-1.7,31.5-25.6,70.5-58.3,73.5c-67.2,6.3-52.4-111.8-52.4-111.8
			c19.5-119.4,54.8-132.6,126.4-137.7c111.7-8,224.9-7.7,339.3,0.1c72,4.8,83.3,12.6,114.8,119.7
			C14033.5,8837.9,14024.4,8894.9,13972.9,8885.6"/>
		<path id="path198" class="st11" d="M13554.7,8932.5c5-25.2,6.8-50.5,7.7-75.8c0.4-12.7,0.5-25.4,0-38.1
			c-0.5-12.7-1.4-25.4-3.6-38.1l-7.3-0.2c-2.8,12.6-4.4,25.2-5.6,37.9c-1.2,12.6-1.8,25.3-2.1,37.9c-0.5,25.4-0.1,50.8,3.5,76.2
			L13554.7,8932.5"/>
		<path id="path200" class="st11" d="M13677.3,8977.3c5-26.8,6.9-53.7,7.9-80.5c0.4-13.5,0.5-27,0-40.4c-0.4-13.5-1.4-27-3.4-40.5
			l-7.4-0.2c-2.8,13.4-4.5,26.8-5.6,40.2c-1.3,13.4-1.9,26.9-2.3,40.3c-0.5,26.9-0.1,53.9,3.5,80.9L13677.3,8977.3"/>
		<path id="path202" class="st11" d="M13798.1,8977.4c5.4-25.4,7.6-50.8,9-76.3c0.6-12.8,0.8-25.6,0.5-38.4
			c-0.3-12.8-1-25.6-2.9-38.4l-7.4-0.3c-3,12.6-4.8,25.3-6.1,38c-1.4,12.8-2.3,25.5-2.8,38.3c-0.8,25.5-0.8,51.1,2.4,76.7
			L13798.1,8977.4"/>
		<path id="path204" class="st11" d="M13954.7,8877.9c-5.7-7.2-9.6-16-13.4-25c-3.7-9.1-7.3-18.4-10.8-27.8
			c-3.5-9.3-7-18.8-10.9-28.2c-3.8-9.4-7.9-18.7-13-27.9l-7,1.9c0.3,10.6,2,20.9,4.3,31c2.4,10.1,5.4,20.1,9.2,29.9
			c3.9,9.7,8.2,19.4,14,28.5c5.8,8.9,12.7,18.2,23.4,23.6L13954.7,8877.9"/>
		<path id="path206" class="st1" d="M17068.6,12085.4v-686.5l-316.6-225h1494.6v911.5H17068.6"/>
		<path id="path208" class="st2" d="M16791.1,11186.4h1443v886.5h-1153v-680.5L16791.1,11186.4z M18259.1,11161.4h-1546.3
			l343.3,243.9v692.6h1203V11161.4"/>
		<path id="path210" class="st2" d="M17641.5,11387.3l-192.3,185.2l34.7,36l145.1-139.7l246.8,452.4l43.9-23.9L17641.5,11387.3"/>
		<path id="path212" class="st5" d="M18288.2,3161.8H2127.7v37.5h16160.5V3161.8"/>
	</g>
</g>
</svg>
