<?xml version="1.0" encoding="UTF-8" standalone="no"?>
<svg
   xmlns:dc="http://purl.org/dc/elements/1.1/"
   xmlns:cc="http://creativecommons.org/ns#"
   xmlns:rdf="http://www.w3.org/1999/02/22-rdf-syntax-ns#"
   xmlns:svg="http://www.w3.org/2000/svg"
   xmlns="http://www.w3.org/2000/svg"
   xmlns:sodipodi="http://sodipodi.sourceforge.net/DTD/sodipodi-0.dtd"
   xmlns:inkscape="http://www.inkscape.org/namespaces/inkscape"
   version="1.1"
   id="svg2"
   xml:space="preserve"
   width="666.66669"
   height="496.81332"
   viewBox="0 0 666.66669 496.81332"
   sodipodi:docname="3353165.eps"><metadata
     id="metadata8"><rdf:RDF><cc:Work
         rdf:about=""><dc:format>image/svg+xml</dc:format><dc:type
           rdf:resource="http://purl.org/dc/dcmitype/StillImage" /></cc:Work></rdf:RDF></metadata><defs
     id="defs6" /><sodipodi:namedview
     pagecolor="#ffffff"
     bordercolor="#666666"
     borderopacity="1"
     objecttolerance="10"
     gridtolerance="10"
     guidetolerance="10"
     inkscape:pageopacity="0"
     inkscape:pageshadow="2"
     inkscape:window-width="640"
     inkscape:window-height="480"
     id="namedview4" /><g
     id="g10"
     inkscape:groupmode="layer"
     inkscape:label="ink_ext_XXXXXX"
     transform="matrix(1.3333333,0,0,-1.3333333,0,496.81333)"><g
       id="g12"
       transform="scale(0.1)"><path
         d="M 5000,449.129 H 0 v 2.5 h 5000 v -2.5"
         style="fill:#e7e8e5;fill-opacity:1;fill-rule:nonzero;stroke:none"
         id="path14" /><path
         d="m 4167.79,290.672 h 331.22 v -2.5 h -331.22 v 2.5"
         style="fill:#e7e8e5;fill-opacity:1;fill-rule:nonzero;stroke:none"
         id="path16" /><path
         d="m 3225.27,263.539 h 86.93 v -2.5 h -86.93 v 2.5"
         style="fill:#e7e8e5;fill-opacity:1;fill-rule:nonzero;stroke:none"
         id="path18" /><path
         d="m 3965.86,383.539 h 191.92 v -2.5 h -191.92 v 2.5"
         style="fill:#e7e8e5;fill-opacity:1;fill-rule:nonzero;stroke:none"
         id="path20" /><path
         d="m 524.59,366.73 h 431.933 v -2.5 H 524.59 v 2.5"
         style="fill:#e7e8e5;fill-opacity:1;fill-rule:nonzero;stroke:none"
         id="path22" /><path
         d="m 1045.56,366.73 h 63.33 v -2.5 h -63.33 v 2.5"
         style="fill:#e7e8e5;fill-opacity:1;fill-rule:nonzero;stroke:none"
         id="path24" /><path
         d="m 1314.71,324.512 h 936.76 v -2.5 h -936.76 v 2.5"
         style="fill:#e7e8e5;fill-opacity:1;fill-rule:nonzero;stroke:none"
         id="path26" /><path
         d="m 439.152,3723.59 c -30.101,0 -54.582,-24.48 -54.582,-54.57 V 954.699 c 0,-30.097 24.481,-54.578 54.582,-54.578 H 2370.14 c 30.08,0 54.57,24.481 54.57,54.578 V 3669.02 c 0,30.09 -24.49,54.57 -54.57,54.57 H 439.152 M 2370.14,897.621 H 439.152 c -31.476,0 -57.082,25.598 -57.082,57.078 V 3669.02 c 0,31.46 25.606,57.07 57.082,57.07 H 2370.14 c 31.46,0 57.07,-25.61 57.07,-57.07 V 954.699 c 0,-31.48 -25.61,-57.078 -57.07,-57.078"
         style="fill:#e7e8e5;fill-opacity:1;fill-rule:nonzero;stroke:none"
         id="path28" /><path
         d="m 2602.12,3723.59 c -30.09,0 -54.57,-24.48 -54.57,-54.57 V 954.699 c 0,-30.097 24.48,-54.578 54.57,-54.578 h 1930.99 c 30.09,0 54.58,24.481 54.58,54.578 V 3669.02 c 0,30.09 -24.49,54.57 -54.58,54.57 H 2602.12 M 4533.11,897.621 H 2602.12 c -31.47,0 -57.07,25.598 -57.07,57.078 V 3669.02 c 0,31.46 25.6,57.07 57.07,57.07 h 1930.99 c 31.47,0 57.08,-25.61 57.08,-57.07 V 954.699 c 0,-31.48 -25.61,-57.078 -57.08,-57.078"
         style="fill:#e7e8e5;fill-opacity:1;fill-rule:nonzero;stroke:none"
         id="path30" /><path
         d="m 745.453,1766.88 h 1556.23 V 3477.84 H 745.453 Z"
         style="fill:#e2e2e0;fill-opacity:1;fill-rule:nonzero;stroke:none"
         id="path32" /><path
         d="m 694.664,1766.88 h 1583.29 V 3477.84 H 694.664 Z"
         style="fill:#ededeb;fill-opacity:1;fill-rule:nonzero;stroke:none"
         id="path34" /><path
         d="M 745.453,1766.88 H 2301.68 v -74.59 H 695.746 l 49.707,74.59"
         style="fill:#e2e2e0;fill-opacity:1;fill-rule:nonzero;stroke:none"
         id="path36" /><path
         d="M 610.051,1766.88 H 2193.33 l -49.7,-74.59 H 560.344 l 49.707,74.59"
         style="fill:#ededeb;fill-opacity:1;fill-rule:nonzero;stroke:none"
         id="path38" /><path
         d="M 765.77,1837.98 H 2206.85 V 3406.73 H 765.77 Z"
         style="fill:#fafaf9;fill-opacity:1;fill-rule:nonzero;stroke:none"
         id="path40" /><path
         d="m 1964.13,1837.98 -556.65,1568.75 h -197.02 l 556.65,-1568.75 h 197.02"
         style="fill:#ffffff;fill-opacity:1;fill-rule:nonzero;stroke:none"
         id="path42" /><path
         d="m 2173.92,1887.84 c 3.01,0 5.44,2.43 5.44,5.44 v 1467.19 c 0,3 -2.43,5.44 -5.44,5.44 -3.01,0 -5.44,-2.44 -5.44,-5.44 V 1893.28 c 0,-3.01 2.43,-5.44 5.44,-5.44"
         style="fill:#ededeb;fill-opacity:1;fill-rule:nonzero;stroke:none"
         id="path44" /><path
         d="M 1544.82,1837.98 988.168,3406.73 H 911.363 L 1468.01,1837.98 h 76.81"
         style="fill:#ffffff;fill-opacity:1;fill-rule:nonzero;stroke:none"
         id="path46" /><path
         d="m 765.77,1837.98 h 9.03516 V 3406.73 H 765.77 Z"
         style="fill:#e2e2e0;fill-opacity:1;fill-rule:nonzero;stroke:none"
         id="path48" /><path
         d="m 680.328,3311.07 4.063,68.02 h 10.273 V 3318 c -5.004,-1.95 -9.793,-4.27 -14.336,-6.93"
         style="fill:#ececea;fill-opacity:1;fill-rule:nonzero;stroke:none"
         id="path50" /><path
         d="m 694.664,3318 v 61.09 h 71.106 v -53.9 h -32.141 c -13.941,0 -27.063,-2.55 -38.965,-7.19 m 1542.736,7.19 h -30.55 v 53.9 h 33.77 l -3.22,-53.9"
         style="fill:#e4e4e2;fill-opacity:1;fill-rule:nonzero;stroke:none"
         id="path52" /><path
         d="m 2206.85,3325.19 h -27.49 v 35.28 c 0,3 -2.43,5.44 -5.44,5.44 -3.01,0 -5.44,-2.44 -5.44,-5.44 v -35.28 h -732.07 l -19.13,53.9 h 789.57 v -53.9 m -967.45,0 h -222.29 l -19.133,53.9 h 222.293 l 19.13,-53.9 m -299.103,0 H 774.805 v 53.9 h 146.367 l 19.125,-53.9"
         style="fill:#eaeae7;fill-opacity:1;fill-rule:nonzero;stroke:none"
         id="path54" /><path
         d="M 1436.41,3325.19 H 1239.4 l -19.13,53.9 h 197.01 l 19.13,-53.9"
         style="fill:#ececea;fill-opacity:1;fill-rule:nonzero;stroke:none"
         id="path56" /><path
         d="m 2179.36,3325.19 h -10.88 v 35.28 c 0,3 2.43,5.44 5.44,5.44 3.01,0 5.44,-2.44 5.44,-5.44 v -35.28"
         style="fill:#e4e4e2;fill-opacity:1;fill-rule:nonzero;stroke:none"
         id="path58" /><path
         d="m 1017.11,3325.19 h -76.813 l -19.125,53.9 h 76.805 l 19.133,-53.9"
         style="fill:#ececea;fill-opacity:1;fill-rule:nonzero;stroke:none"
         id="path60" /><path
         d="m 765.77,3325.19 h 9.03516 v 53.9063 H 765.77 Z"
         style="fill:#dddedb;fill-opacity:1;fill-rule:nonzero;stroke:none"
         id="path62" /><path
         d="m 679.816,2729.18 h -1.968 l 0.73,12.28 1.238,-12.28"
         style="fill:#ececea;fill-opacity:1;fill-rule:nonzero;stroke:none"
         id="path64" /><path
         d="m 694.664,2549.06 h -16.816 l 6.543,109.57 h 2.523 l 7.75,-77.03 v -32.54"
         style="fill:#ececea;fill-opacity:1;fill-rule:nonzero;stroke:none"
         id="path66" /><path
         d="m 697.938,2549.06 h -3.274 v 32.54 l 3.274,-32.54"
         style="fill:#e4e4e2;fill-opacity:1;fill-rule:nonzero;stroke:none"
         id="path68" /><path
         d="m 694.664,2368.95 h -16.816 l 6.543,109.57 h 10.273 v -109.57"
         style="fill:#ececea;fill-opacity:1;fill-rule:nonzero;stroke:none"
         id="path70" /><path
         d="m 716.059,2368.95 h -21.395 v 109.57 h 10.371 l 11.024,-109.57"
         style="fill:#e4e4e2;fill-opacity:1;fill-rule:nonzero;stroke:none"
         id="path72" /><path
         d="m 3013.74,2693.17 h 1233.09 v 552.445 H 3013.74 Z"
         style="fill:#f3f2f1;fill-opacity:1;fill-rule:nonzero;stroke:none"
         id="path74" /><path
         d="m 3013.74,3226.25 h 1233.09 v 19.3711 H 3013.74 Z"
         style="fill:#dadbd8;fill-opacity:1;fill-rule:nonzero;stroke:none"
         id="path76" /><path
         d="m 3013.74,2693.17 h 1233.09 v 19.3672 H 3013.74 Z"
         style="fill:#dadbd8;fill-opacity:1;fill-rule:nonzero;stroke:none"
         id="path78" /><path
         d="m 3610.94,451.629 -17.32,2241.541 h 73.33 L 3649.63,451.629 h -38.69"
         style="fill:#e7e8e5;fill-opacity:1;fill-rule:nonzero;stroke:none"
         id="path80" /><path
         d="m 3086.41,451.629 658.31,2241.541 h 73.33 L 3125.1,451.629 h -38.69"
         style="fill:#e7e8e5;fill-opacity:1;fill-rule:nonzero;stroke:none"
         id="path82" /><path
         d="m 4174.15,451.629 -658.3,2241.541 h -73.33 L 4135.47,451.629 h 38.68"
         style="fill:#e7e8e5;fill-opacity:1;fill-rule:nonzero;stroke:none"
         id="path84" /><path
         d="m 812.27,413.359 h 70.933 V 1351.19 H 812.27 V 413.359"
         style="fill:#e2e2e0;fill-opacity:1;fill-rule:nonzero;stroke:none"
         id="path86" /><path
         d="m 789.887,413.359 h 49.261 V 1351.19 H 789.887 V 413.359"
         style="fill:#ededeb;fill-opacity:1;fill-rule:nonzero;stroke:none"
         id="path88" /><path
         d="M 2342.09,1264.03 H 773.754 v 130.74 H 2342.09 v -130.74"
         style="fill:#ededeb;fill-opacity:1;fill-rule:nonzero;stroke:none"
         id="path90" /><path
         d="m 2301.68,456.941 h 70.94 v 807.089 h -70.94 V 456.941"
         style="fill:#e2e2e0;fill-opacity:1;fill-rule:nonzero;stroke:none"
         id="path92" /><path
         d="m 2279.3,456.941 h 49.26 V 1264.03 H 2279.3 V 456.941"
         style="fill:#ededeb;fill-opacity:1;fill-rule:nonzero;stroke:none"
         id="path94" /><path
         d="m 2806.59,456.941 h 70.93 v 807.089 h -70.93 V 456.941"
         style="fill:#e2e2e0;fill-opacity:1;fill-rule:nonzero;stroke:none"
         id="path96" /><path
         d="m 2784.2,456.941 h 49.27 V 1264.03 H 2784.2 V 456.941"
         style="fill:#ededeb;fill-opacity:1;fill-rule:nonzero;stroke:none"
         id="path98" /><path
         d="m 1261.15,456.941 h 70.93 v 807.089 h -70.93 V 456.941"
         style="fill:#e2e2e0;fill-opacity:1;fill-rule:nonzero;stroke:none"
         id="path100" /><path
         d="m 1238.76,456.941 h 49.26 v 807.089 h -49.26 V 456.941"
         style="fill:#ededeb;fill-opacity:1;fill-rule:nonzero;stroke:none"
         id="path102" /><path
         d="m 2342.09,1264.03 h 551.56 v 130.74 h -551.56 v -130.74"
         style="fill:#e2e2e0;fill-opacity:1;fill-rule:nonzero;stroke:none"
         id="path104" /><path
         d="m 2011.83,1492.37 h -679.75 v -97.6 h 679.75 v 97.6"
         style="fill:#e7e8e5;fill-opacity:1;fill-rule:nonzero;stroke:none"
         id="path106" /><path
         d="m 2011.83,1492.37 h 332.78 v -97.6 h -332.78 v 97.6"
         style="fill:#dadbd8;fill-opacity:1;fill-rule:nonzero;stroke:none"
         id="path108" /><path
         d="m 2097.82,1471.2 h 160.79 c 7.63,0 13.81,-6.19 13.81,-13.82 0,-7.62 -6.18,-13.81 -13.81,-13.81 h -160.79 c -7.62,0 -13.81,6.19 -13.81,13.81 0,7.63 6.19,13.82 13.81,13.82"
         style="fill:#f3f2f1;fill-opacity:1;fill-rule:nonzero;stroke:none"
         id="path110" /><path
         d="m 1696.58,1562.5 h -136.96 v -70.13 h 136.96 v 70.13"
         style="fill:#f3f2f1;fill-opacity:1;fill-rule:nonzero;stroke:none"
         id="path112" /><path
         d="m 1633.06,1562.5 h -9.92 v 29.28 h 9.92 v -29.28"
         style="fill:#e2e2e0;fill-opacity:1;fill-rule:nonzero;stroke:none"
         id="path114" /><path
         d="m 1818.64,1535.7 h -9.92 v 14.64 h 9.92 v -14.64"
         style="fill:#e2e2e0;fill-opacity:1;fill-rule:nonzero;stroke:none"
         id="path116" /><path
         d="m 1897.04,1535.7 h -166.72 v -43.33 h 166.72 v 43.33"
         style="fill:#ededeb;fill-opacity:1;fill-rule:nonzero;stroke:none"
         id="path118" /><path
         d="M 4438.89,113.23 C 4438.89,50.6914 3570.83,0 2500,0 1429.18,0 561.109,50.6914 561.109,113.23 c 0,62.54 868.071,113.239 1938.891,113.239 1070.83,0 1938.89,-50.699 1938.89,-113.239"
         style="fill:#f3f2f1;fill-opacity:1;fill-rule:nonzero;stroke:none"
         id="path120" /><path
         d="m 2286.84,3350.18 h -70 v 10 h 70 v -10"
         style="fill:#406fbf;fill-opacity:1;fill-rule:nonzero;stroke:none"
         id="path122" /><path
         d="M 2152.18,3350.18 H 1811.9 v 10 h 340.28 v -10"
         style="fill:#406fbf;fill-opacity:1;fill-rule:nonzero;stroke:none"
         id="path124" /><path
         d="M 4014.6,1960.03 H 870.977 c -62.579,0 -118.926,51.2 -125.227,113.78 l -114.449,1137.6 c -6.297,62.57 39.754,113.78 102.328,113.78 H 3877.25 c 62.57,0 118.92,-51.21 125.22,-113.78 l 114.45,-1137.6 c 6.3,-62.58 -39.75,-113.78 -102.32,-113.78"
         style="fill:#406fbf;fill-opacity:1;fill-rule:nonzero;stroke:none"
         id="path126" /><path
         d="M 1321.06,2045.36 H 942.988 c -59.39,0 -112.875,48.6 -118.851,108 l -98.449,978.5 c -5.977,59.4 37.73,108 97.125,108 h 378.067 c 59.39,0 112.88,-48.6 118.86,-108 l 98.44,-978.5 c 5.98,-59.4 -37.73,-108 -97.12,-108"
         style="fill:#6d97d6;fill-opacity:1;fill-rule:nonzero;stroke:none"
         id="path128" /><path
         d="M 1982.14,2005.25 H 1583.2 c -62.67,0 -119.11,51.28 -125.42,113.96 l -105.31,1046.8 c -6.31,62.67 39.81,113.95 102.49,113.95 h 398.94 c 62.67,0 119.11,-51.28 125.41,-113.95 l 105.32,-1046.8 c 6.31,-62.68 -39.81,-113.96 -102.49,-113.96"
         style="fill:#ffffff;fill-opacity:1;fill-rule:nonzero;stroke:none"
         id="path130" /><path
         d="m 2599.08,2045.36 h -362.86 c -59.39,0 -112.88,48.6 -118.86,108 l -23.93,237.84 100.5,-68.73 c -5.17,-3.31 -8.26,-9.33 -7.57,-16.18 l 3.91,-38.91 c 1.05,-10.36 10.38,-18.85 20.76,-18.85 h 91 l 297.05,-203.17 m 111.63,81.11 -218.58,122.06 h 106.47 c 10.36,0 18,8.49 16.96,18.85 l -3.92,38.91 c -1.04,10.38 -10.38,18.86 -20.75,18.86 h -235.95 l -270.03,150.8 -65.99,655.91 c -5.98,59.4 37.73,108 97.12,108 h 378.07 c 59.39,0 112.88,-48.6 118.85,-108 l 98.45,-978.5 c 0.93,-9.28 0.66,-18.29 -0.7,-26.89"
         style="fill:#6d97d6;fill-opacity:1;fill-rule:nonzero;stroke:none"
         id="path132" /><path
         d="m 3240.12,2045.36 h -357.29 c -2.4,0 -4.79,0.08 -7.17,0.24 29.7,20.14 58.84,41.02 87.6,62.72 22.84,17.29 45.46,34.87 67.8,53.83 l 16.86,14.55 c 5.75,5.36 11.16,10.16 17.07,16.12 l 8.86,9.12 7.59,8.65 c 4.89,5.73 10.16,11.45 14.73,17.23 5.64,6.87 11.16,13.78 16.58,20.71 h 105.85 c 4.51,-58.97 11.46,-126.33 21.52,-203.17 M 2808.1,2073 c -24.08,19.81 -40.92,48.53 -44.12,80.36 l -98.45,978.5 c -5.97,59.4 37.73,108 97.13,108 h 378.06 c 59.4,0 112.88,-48.6 118.85,-108 l 47.14,-468.47 c -26.96,-4.76 -48.35,-10.07 -56.32,-12.14 -36.62,-6.27 -73.04,-30.96 -92.22,-77.78 -33.87,-82.74 -116.19,-203.33 -116.19,-203.33 v 0 0 l 18.98,-14.35 c -6.62,-10.33 -13.3,-20.56 -20.06,-30.64 h -190.98 c -10.37,0 -18,-8.48 -16.96,-18.86 l 3.92,-38.91 c 1.04,-10.36 10.38,-18.85 20.75,-18.85 h 125.77 c -5.27,-5.75 -10.88,-11.66 -16.46,-17.52 -19.04,-19.47 -38.91,-39.09 -58.81,-58.7 -33.3,-32.73 -66.92,-65.76 -100.03,-99.31 m 184.17,768.91 c -0.18,0 -0.36,-0.01 -0.54,-0.03 -2.38,-0.24 -4.13,-2.37 -3.88,-4.75 l 2.32,-23.07 c 0.22,-2.24 2.11,-3.91 4.31,-3.91 l 0.44,0.03 c 2.38,0.24 4.12,2.36 3.88,4.75 l -2.32,23.07 c -0.22,2.2 -2.08,3.91 -4.21,3.91 m 50.8,21.99 c -1.18,0 -2.36,-0.48 -3.22,-1.42 -1.61,-1.78 -1.48,-4.52 0.3,-6.13 l 17.95,-16.31 c 0.83,-0.75 1.88,-1.13 2.92,-1.13 1.18,0 2.36,0.48 3.21,1.42 1.61,1.78 1.48,4.53 -0.29,6.13 l -17.95,16.31 c -0.84,0.76 -1.88,1.13 -2.92,1.13 m -106.24,0.01 c -1.18,0 -2.37,-0.49 -3.23,-1.45 l -14.66,-16.31 c -1.61,-1.78 -1.46,-4.52 0.32,-6.12 0.83,-0.75 1.87,-1.12 2.9,-1.12 1.19,0 2.37,0.48 3.23,1.44 l 14.67,16.31 c 1.6,1.78 1.45,4.53 -0.33,6.13 -0.82,0.75 -1.86,1.12 -2.9,1.12 m 42.67,99.41 c -27.97,0 -48.36,-22.66 -45.54,-50.63 2.81,-27.97 27.76,-50.64 55.73,-50.64 27.97,0 48.36,22.67 45.54,50.64 -2.81,27.97 -27.76,50.63 -55.73,50.63 m 80.23,-46.3 c -2.4,0 -4.34,-1.94 -4.34,-4.34 0,-2.39 1.94,-4.34 4.34,-4.34 h 23.06 c 2.4,0 4.34,1.95 4.34,4.34 0,2.4 -1.94,4.34 -4.34,4.34 h -23.06 m -173.31,0 c -2.4,0 -4.34,-1.94 -4.34,-4.34 0,-2.39 1.94,-4.34 4.34,-4.34 h 23.06 c 2.4,0 4.34,1.95 4.34,4.34 0,2.4 -1.94,4.34 -4.34,4.34 h -23.06 m 160.63,69.43 c -1.19,0 -2.37,-0.48 -3.23,-1.44 l -14.67,-16.31 c -1.6,-1.78 -1.45,-4.52 0.33,-6.13 0.82,-0.74 1.86,-1.11 2.9,-1.11 1.18,0 2.37,0.49 3.23,1.44 l 14.66,16.31 c 1.61,1.78 1.46,4.52 -0.32,6.13 -0.83,0.75 -1.87,1.11 -2.9,1.11 m -138.86,0 c -1.18,0 -2.35,-0.48 -3.21,-1.42 -1.61,-1.78 -1.48,-4.52 0.29,-6.13 l 17.95,-16.31 c 0.84,-0.76 1.88,-1.13 2.92,-1.13 1.18,0 2.36,0.48 3.22,1.42 1.61,1.78 1.47,4.52 -0.3,6.14 l -17.95,16.3 c -0.83,0.76 -1.88,1.13 -2.92,1.13 m 66.66,28.78 c -0.18,0 -0.37,-0.02 -0.56,-0.04 -2.38,-0.24 -4.12,-2.37 -3.88,-4.75 l 2.32,-23.07 c 0.22,-2.24 2.11,-3.91 4.31,-3.91 l 0.44,0.03 c 2.38,0.24 4.13,2.36 3.88,4.75 l -2.32,23.06 c -0.22,2.19 -2.09,3.93 -4.19,3.93 m 238.96,-690.08 h -10.58 c 3.24,3.6 6.61,7.37 10.07,11.3 0.16,-3.72 0.33,-7.49 0.51,-11.3"
         style="fill:#5d87cd;fill-opacity:1;fill-rule:nonzero;stroke:none"
         id="path134" /><path
         d="m 3907.51,2045.36 h -193.36 c 25.2,22.95 48.8,47.74 70.94,75.66 17.47,22.77 34.38,46.53 46.5,79.74 4.39,13.13 8.74,28.56 7.72,47.77 h 52.52 c 10.36,0 17.99,8.49 16.95,18.85 l -3.91,38.91 c -1.05,10.38 -10.38,18.86 -20.75,18.86 h -67.19 c -8.33,21.89 -17.28,43.25 -26.65,64.26 l 9.09,5.95 v 0 c 0,0 -79.66,243.19 -147.41,258.73 -2.2,0.5 -4.38,0.92 -6.54,1.25 -18.21,3.38 -71.57,12.61 -122.87,15.09 -2,0.09 -4.03,0.19 -6.1,0.28 2.99,14.62 2.81,27.85 -9.94,31.72 -4.52,1.38 -13.65,2.32 -25.39,2.73 -12.86,44.67 -5,110.18 2.87,150.31 l -96.84,-70.81 c 7.44,-29.74 3.45,-59.79 -16.69,-89.19 -5.22,-1.38 -9.92,-2.91 -13.95,-4.62 l -44.37,441.01 c -5.97,59.4 37.73,108 97.13,108 h 378.06 c 59.4,0 112.88,-48.6 118.86,-108 l 98.45,-978.5 c 5.97,-59.4 -37.73,-108 -97.13,-108 m -235.85,827.81 c -1.8,0 -3.59,-0.73 -4.9,-2.18 l -39.58,-44.01 c -2.43,-2.71 -2.21,-6.87 0.49,-9.3 1.26,-1.13 2.83,-1.69 4.4,-1.69 1.81,0 3.6,0.73 4.9,2.18 l 39.59,44.01 c 2.43,2.71 2.21,6.87 -0.5,9.3 -1.25,1.13 -2.83,1.69 -4.4,1.69 m -46.67,0 c -1.8,0 -3.59,-0.73 -4.89,-2.18 l -39.59,-44.01 c -2.43,-2.71 -2.21,-6.87 0.5,-9.3 1.26,-1.13 2.83,-1.69 4.4,-1.69 1.8,0 3.59,0.73 4.9,2.18 l 39.58,44.01 c 2.43,2.71 2.21,6.87 -0.49,9.3 -1.26,1.13 -2.84,1.69 -4.41,1.69 m -46.66,0 c -1.8,0 -3.59,-0.73 -4.9,-2.18 l -39.58,-44.01 c -2.43,-2.71 -2.21,-6.87 0.49,-9.3 1.26,-1.13 2.83,-1.69 4.4,-1.69 1.81,0 3.6,0.73 4.9,2.18 l 39.59,44.01 c 2.43,2.71 2.21,6.87 -0.5,9.3 -1.26,1.13 -2.83,1.69 -4.4,1.69 m 21.55,164.51 c -27.65,0 -48.81,-19.39 -51.95,-45.32 -25.84,-1.68 -44.25,-23.29 -41.59,-49.72 2.77,-27.51 27.33,-49.83 54.85,-49.83 h 158.57 c 19.5,0 33.73,15.82 31.76,35.33 -1.51,15.07 -12.26,27.93 -26.06,33 -2.87,26.28 -26.36,47.51 -52.69,47.51 -6.34,0 -12.26,-1.24 -17.58,-3.48 -11.34,19.24 -32.44,32.51 -55.31,32.51 m 29.23,-988.22 c -1.51,39.76 -7.08,110.84 -8.77,199.07 h 118.06 l 0.93,-2.27 1.73,-4.25 c 0.26,-0.62 0.33,-0.8 0.34,-0.8 0.01,0 -0.01,0.08 -0.02,0.15 l 0.04,0.33 c 0.05,0.14 0.11,0.2 0.17,0.2 0.55,0 1.16,-6.01 -0.59,-13.48 -1.76,-8.34 -5.46,-18.35 -10.09,-28.42 -4.55,-10.19 -9.99,-20.68 -16.04,-31.11 -21.27,-36.68 -47.62,-73.76 -74.55,-109.51 l -11.21,-9.91 m 74.58,275.69 h -11.63 l 8.79,5.75 c 0.95,-1.92 1.9,-3.83 2.84,-5.75 m -23.76,0 H 3620 c 0.32,29.84 1.22,60.92 2.94,92.88 24.72,-42.28 48.23,-79.25 56.99,-92.88"
         style="fill:#4d79c6;fill-opacity:1;fill-rule:nonzero;stroke:none"
         id="path136" /><path
         d="m 2452.23,2919.46 c -3.32,30.47 -30.56,55.08 -61.08,55.08 -7.36,0 -14.23,-1.44 -20.39,-4.04 -13.16,22.32 -37.62,37.7 -64.13,37.7 -32.06,0 -56.6,-22.49 -60.24,-52.54 -29.96,-1.95 -51.3,-27.01 -48.22,-57.65 3.22,-31.91 31.68,-57.78 63.6,-57.78 h 183.85 c 22.62,0 39.11,18.34 36.83,40.96 -1.76,17.48 -14.21,32.4 -30.22,38.27"
         style="fill:#ffffff;fill-opacity:1;fill-rule:nonzero;stroke:none"
         id="path138" /><path
         d="m 1815.15,3016.77 c -3.88,35.58 -35.7,64.34 -71.36,64.34 -8.59,0 -16.61,-1.68 -23.81,-4.72 -15.37,26.07 -43.94,44.03 -74.92,44.03 -37.45,0 -66.1,-26.27 -70.36,-61.38 -34.99,-2.27 -59.92,-31.53 -56.32,-67.33 3.75,-37.28 37.01,-67.5 74.28,-67.5 h 214.76 c 26.42,0 45.69,21.43 43.03,47.84 -2.05,20.43 -16.6,37.85 -35.3,44.72"
         style="fill:#406fbf;fill-opacity:1;fill-rule:nonzero;stroke:none"
         id="path140" /><path
         d="m 1625.46,2820.16 c -2.12,0 -4.25,0.76 -5.95,2.29 -3.67,3.29 -3.97,8.93 -0.67,12.6 l 55.71,61.94 c 3.3,3.66 8.93,3.97 12.59,0.67 3.67,-3.29 3.97,-8.93 0.67,-12.59 l -55.71,-61.95 c -1.76,-1.96 -4.19,-2.96 -6.64,-2.96"
         style="fill:#406fbf;fill-opacity:1;fill-rule:nonzero;stroke:none"
         id="path142" /><path
         d="m 1688.66,2820.16 c -2.12,0 -4.25,0.76 -5.95,2.29 -3.67,3.3 -3.97,8.93 -0.67,12.6 l 55.71,61.94 c 3.3,3.66 8.93,3.97 12.6,0.67 3.66,-3.29 3.96,-8.93 0.67,-12.59 l -55.72,-61.95 c -1.76,-1.96 -4.2,-2.96 -6.64,-2.96"
         style="fill:#406fbf;fill-opacity:1;fill-rule:nonzero;stroke:none"
         id="path144" /><path
         d="m 1562.26,2820.16 c -2.12,0 -4.25,0.76 -5.96,2.29 -3.66,3.3 -3.96,8.93 -0.67,12.6 l 55.72,61.94 c 3.3,3.66 8.93,3.97 12.6,0.67 3.66,-3.29 3.96,-8.93 0.66,-12.59 l -55.71,-61.95 c -1.77,-1.96 -4.2,-2.96 -6.64,-2.96"
         style="fill:#406fbf;fill-opacity:1;fill-rule:nonzero;stroke:none"
         id="path146" /><path
         d="m 3719.76,2892.81 h -158.57 c -27.52,0 -52.08,22.32 -54.85,49.83 -2.66,26.43 15.75,48.04 41.59,49.72 3.14,25.93 24.3,45.32 51.95,45.32 22.87,0 43.97,-13.27 55.31,-32.51 5.32,2.24 11.24,3.48 17.58,3.48 26.33,0 49.82,-21.23 52.69,-47.51 13.8,-5.07 24.55,-17.93 26.06,-33 1.97,-19.51 -12.26,-35.33 -31.76,-35.33"
         style="fill:#88afe1;fill-opacity:1;fill-rule:nonzero;stroke:none"
         id="path148" /><path
         d="m 3585.41,2815.99 c -1.57,0 -3.14,0.56 -4.4,1.69 -2.71,2.43 -2.93,6.59 -0.5,9.3 l 39.59,44.01 c 1.3,1.45 3.09,2.18 4.89,2.18 1.57,0 3.15,-0.56 4.41,-1.69 2.7,-2.43 2.92,-6.59 0.49,-9.3 l -39.58,-44.01 c -1.31,-1.45 -3.1,-2.18 -4.9,-2.18"
         style="fill:#88afe1;fill-opacity:1;fill-rule:nonzero;stroke:none"
         id="path150" /><path
         d="m 3632.07,2815.99 c -1.57,0 -3.14,0.56 -4.4,1.69 -2.7,2.43 -2.92,6.59 -0.49,9.3 l 39.58,44.01 c 1.31,1.45 3.1,2.18 4.9,2.18 1.57,0 3.15,-0.56 4.4,-1.69 2.71,-2.43 2.93,-6.59 0.5,-9.3 l -39.59,-44.01 c -1.3,-1.45 -3.09,-2.18 -4.9,-2.18"
         style="fill:#88afe1;fill-opacity:1;fill-rule:nonzero;stroke:none"
         id="path152" /><path
         d="m 3538.74,2815.99 c -1.57,0 -3.14,0.56 -4.4,1.69 -2.7,2.43 -2.92,6.59 -0.49,9.3 l 39.58,44.01 c 1.31,1.45 3.1,2.18 4.9,2.18 1.57,0 3.14,-0.56 4.4,-1.69 2.71,-2.43 2.93,-6.59 0.5,-9.3 l -39.59,-44.01 c -1.3,-1.45 -3.09,-2.18 -4.9,-2.18"
         style="fill:#88afe1;fill-opacity:1;fill-rule:nonzero;stroke:none"
         id="path154" /><path
         d="m 2989.69,2862.05 c -27.97,0 -52.92,22.67 -55.73,50.64 -2.82,27.97 17.57,50.63 45.54,50.63 27.97,0 52.92,-22.66 55.73,-50.63 2.82,-27.97 -17.57,-50.64 -45.54,-50.64"
         style="fill:#c6daf2;fill-opacity:1;fill-rule:nonzero;stroke:none"
         id="path156" /><path
         d="m 2994.48,2810.15 c -2.2,0 -4.09,1.67 -4.31,3.91 l -2.32,23.07 c -0.25,2.38 1.5,4.51 3.88,4.75 0.18,0.02 0.36,0.03 0.54,0.03 2.13,0 3.99,-1.71 4.21,-3.91 l 2.32,-23.07 c 0.24,-2.39 -1.5,-4.51 -3.88,-4.75 l -0.44,-0.03"
         style="fill:#c6daf2;fill-opacity:1;fill-rule:nonzero;stroke:none"
         id="path158" /><path
         d="m 2977.04,2983.46 c -2.2,0 -4.09,1.67 -4.31,3.91 l -2.32,23.07 c -0.24,2.38 1.5,4.51 3.88,4.75 0.19,0.02 0.38,0.04 0.56,0.04 2.1,0 3.97,-1.74 4.19,-3.93 l 2.32,-23.06 c 0.25,-2.39 -1.5,-4.51 -3.88,-4.75 l -0.44,-0.03"
         style="fill:#c6daf2;fill-opacity:1;fill-rule:nonzero;stroke:none"
         id="path160" /><path
         d="m 2909.48,2908.34 h -23.06 c -2.4,0 -4.34,1.95 -4.34,4.34 0,2.4 1.94,4.34 4.34,4.34 h 23.06 c 2.4,0 4.34,-1.94 4.34,-4.34 0,-2.39 -1.94,-4.34 -4.34,-4.34"
         style="fill:#c6daf2;fill-opacity:1;fill-rule:nonzero;stroke:none"
         id="path162" /><path
         d="m 3082.79,2908.34 h -23.06 c -2.4,0 -4.34,1.95 -4.34,4.34 0,2.4 1.94,4.34 4.34,4.34 h 23.06 c 2.4,0 4.34,-1.94 4.34,-4.34 0,-2.39 -1.94,-4.34 -4.34,-4.34"
         style="fill:#c6daf2;fill-opacity:1;fill-rule:nonzero;stroke:none"
         id="path164" /><path
         d="m 3061.02,2838.91 c -1.04,0 -2.09,0.38 -2.92,1.13 l -17.95,16.31 c -1.78,1.61 -1.91,4.35 -0.3,6.13 0.86,0.94 2.04,1.42 3.22,1.42 1.04,0 2.08,-0.37 2.92,-1.13 l 17.95,-16.31 c 1.77,-1.6 1.9,-4.35 0.29,-6.13 -0.85,-0.94 -2.03,-1.42 -3.21,-1.42"
         style="fill:#c6daf2;fill-opacity:1;fill-rule:nonzero;stroke:none"
         id="path166" /><path
         d="m 2926.14,2961.46 c -1.04,0 -2.08,0.37 -2.92,1.13 l -17.95,16.31 c -1.77,1.61 -1.9,4.35 -0.29,6.13 0.86,0.94 2.03,1.42 3.21,1.42 1.04,0 2.09,-0.37 2.92,-1.13 l 17.95,-16.3 c 1.77,-1.62 1.91,-4.36 0.3,-6.14 -0.86,-0.94 -2.04,-1.42 -3.22,-1.42"
         style="fill:#c6daf2;fill-opacity:1;fill-rule:nonzero;stroke:none"
         id="path168" /><path
         d="m 2922.16,2838.91 c -1.03,0 -2.07,0.37 -2.9,1.12 -1.78,1.6 -1.93,4.34 -0.32,6.12 l 14.66,16.31 c 0.86,0.96 2.05,1.45 3.23,1.45 1.04,0 2.08,-0.37 2.9,-1.12 1.78,-1.6 1.93,-4.35 0.33,-6.13 l -14.67,-16.31 c -0.86,-0.96 -2.04,-1.44 -3.23,-1.44"
         style="fill:#c6daf2;fill-opacity:1;fill-rule:nonzero;stroke:none"
         id="path170" /><path
         d="m 3032.38,2961.46 c -1.04,0 -2.08,0.37 -2.9,1.11 -1.78,1.61 -1.93,4.35 -0.33,6.13 l 14.67,16.31 c 0.86,0.96 2.04,1.44 3.23,1.44 1.03,0 2.07,-0.36 2.9,-1.11 1.78,-1.61 1.93,-4.35 0.32,-6.13 l -14.66,-16.31 c -0.86,-0.95 -2.05,-1.44 -3.23,-1.44"
         style="fill:#c6daf2;fill-opacity:1;fill-rule:nonzero;stroke:none"
         id="path172" /><path
         d="m 1142.93,2926.08 c -2.82,25.93 -26.02,46.89 -52,46.89 -6.27,0 -12.11,-1.22 -17.36,-3.43 -11.2,19 -32.03,32.09 -54.6,32.09 -27.298,0 -48.189,-19.15 -51.282,-44.74 -25.508,-1.65 -43.68,-22.98 -41.051,-49.08 2.726,-27.17 26.972,-49.18 54.14,-49.18 H 1137.3 c 19.26,0 33.3,15.6 31.36,34.86 -1.49,14.89 -12.1,27.58 -25.73,32.59"
         style="fill:#ffffff;fill-opacity:1;fill-rule:nonzero;stroke:none"
         id="path174" /><path
         d="m 986.953,3009.56 c -15.605,-7.89 -27.422,-21.79 -32.359,-39.1 -10.973,-2.66 -20.356,-8.28 -27.629,-15.95 -9.145,7.83 -15.418,18.92 -16.656,31.21 -2.399,23.84 15.023,43.13 38.789,43.13 15.035,0 29.015,-7.67 37.855,-19.29"
         style="fill:#ffffff;fill-opacity:1;fill-rule:nonzero;stroke:none"
         id="path176" /><path
         d="m 947.016,3046.01 c -1.875,0 -3.481,1.42 -3.672,3.32 l -1.977,19.63 c -0.207,2.04 1.274,3.85 3.305,4.05 2.09,0.28 3.844,-1.27 4.051,-3.3 l 1.976,-19.64 c 0.203,-2.03 -1.273,-3.84 -3.304,-4.04 l -0.379,-0.02"
         style="fill:#ffffff;fill-opacity:1;fill-rule:nonzero;stroke:none"
         id="path178" /><path
         d="m 889.496,2982.05 h -19.633 c -2.043,0 -3.695,1.65 -3.695,3.69 0,2.05 1.652,3.7 3.695,3.7 h 19.633 c 2.043,0 3.695,-1.65 3.695,-3.7 0,-2.04 -1.652,-3.69 -3.695,-3.69"
         style="fill:#ffffff;fill-opacity:1;fill-rule:nonzero;stroke:none"
         id="path180" /><path
         d="m 903.684,3027.27 -2.489,0.96 -15.281,13.89 c -1.512,1.37 -1.621,3.71 -0.25,5.22 1.371,1.51 3.711,1.62 5.219,0.25 l 15.285,-13.89 c 1.508,-1.37 1.621,-3.71 0.25,-5.22 -0.73,-0.8 -1.73,-1.21 -2.734,-1.21"
         style="fill:#ffffff;fill-opacity:1;fill-rule:nonzero;stroke:none"
         id="path182" /><path
         d="m 900.293,2922.93 -2.473,0.95 c -1.515,1.37 -1.636,3.71 -0.277,5.22 l 12.492,13.89 c 1.371,1.51 3.703,1.64 5.219,0.28 1.519,-1.37 1.641,-3.7 0.277,-5.22 l -12.488,-13.89 c -0.734,-0.81 -1.738,-1.23 -2.75,-1.23"
         style="fill:#ffffff;fill-opacity:1;fill-rule:nonzero;stroke:none"
         id="path184" /><path
         d="m 994.133,3027.27 -2.473,0.95 c -1.519,1.37 -1.64,3.7 -0.277,5.22 l 12.487,13.88 c 1.38,1.52 3.7,1.64 5.22,0.28 1.52,-1.37 1.64,-3.7 0.28,-5.22 l -12.491,-13.88 c -0.731,-0.81 -1.738,-1.23 -2.746,-1.23"
         style="fill:#ffffff;fill-opacity:1;fill-rule:nonzero;stroke:none"
         id="path186" /><path
         d="M 1305.37,2248.53 H 917.797 c -10.371,0 -19.707,8.49 -20.75,18.85 l -3.918,38.91 c -1.039,10.38 6.594,18.86 16.961,18.86 h 387.57 c 10.37,0 19.71,-8.48 20.75,-18.86 l 3.92,-38.91 c 1.04,-10.36 -6.59,-18.85 -16.96,-18.85"
         style="fill:#ffffff;fill-opacity:1;fill-rule:nonzero;stroke:none"
         id="path188" /><path
         d="m 1972.65,2231.41 h -425.46 c -11.38,0 -21.63,9.31 -22.78,20.7 l -4.29,42.71 c -1.15,11.38 7.23,20.69 18.61,20.69 h 425.45 c 11.39,0 21.64,-9.31 22.78,-20.69 l 4.3,-42.71 c 1.15,-11.39 -7.23,-20.7 -18.61,-20.7"
         style="fill:#406fbf;fill-opacity:1;fill-rule:nonzero;stroke:none"
         id="path190" /><path
         d="m 2598.6,2248.53 h -387.57 c -10.38,0 -19.71,8.49 -20.76,18.85 l -3.91,38.91 c -1.04,10.38 6.59,18.86 16.96,18.86 h 387.57 c 10.37,0 19.71,-8.48 20.75,-18.86 l 3.92,-38.91 c 1.04,-10.36 -6.6,-18.85 -16.96,-18.85"
         style="fill:#ffffff;fill-opacity:1;fill-rule:nonzero;stroke:none"
         id="path192" /><path
         d="m 3218.6,2248.53 h -105.85 c 11.25,14.4 22.05,28.93 32.52,43.56 l 15.76,-11.91 c 0,0 17.57,17.58 42.2,44.97 h 10.58 c 1.12,-23.82 2.69,-49.33 4.79,-76.62 m -235.2,0 h -125.77 c -10.37,0 -19.71,8.49 -20.75,18.85 l -3.92,38.91 c -1.04,10.38 6.59,18.86 16.96,18.86 h 190.98 c -8.05,-12.02 -16.2,-23.84 -24.48,-35.39 -3.82,-5.57 -7.86,-10.5 -11.77,-15.8 l -5.86,-7.71 -5.4,-6.53 c -3.12,-3.62 -6.48,-7.37 -9.99,-11.19"
         style="fill:#c6daf2;fill-opacity:1;fill-rule:nonzero;stroke:none"
         id="path194" /><path
         d="m 3891.83,2248.53 h -52.52 c -0.28,5.24 -0.96,10.76 -2.15,16.6 -0.35,1.66 -0.84,3.39 -1.3,5.07 l -1.2,4.02 -1.64,5.02 -3.28,10.04 c -2.15,6.76 -4.43,13.36 -6.84,19.81 -1.95,5.39 -3.94,10.74 -5.97,16.06 h 67.19 c 10.37,0 19.7,-8.48 20.75,-18.86 l 3.91,-38.91 c 1.04,-10.36 -6.59,-18.85 -16.95,-18.85 m -153.43,0 h -118.06 c -0.31,16.17 -0.49,32.91 -0.49,50.14 0,8.7 0.05,17.54 0.15,26.48 h 59.93 c 2.31,-3.61 3.6,-5.58 3.6,-5.58 l 8.53,5.58 h 11.63 c 8.74,-17.81 17.11,-35.64 24.92,-53.43 2.62,-5.69 5.03,-11.36 7.25,-16.99 l 2.54,-6.2"
         style="fill:#88afe1;fill-opacity:1;fill-rule:nonzero;stroke:none"
         id="path196" /><path
         d="m 3680.37,2599.28 c 28.07,-46.46 53.31,-92.89 77.41,-140.99 23.74,-48.17 46.23,-97.06 65.12,-149.2 2.41,-6.45 4.69,-13.05 6.84,-19.81 l 3.28,-10.04 1.64,-5.02 1.2,-4.02 c 0.46,-1.68 0.95,-3.41 1.3,-5.07 5.55,-27.22 0.02,-47.66 -5.57,-64.37 -12.12,-33.21 -29.03,-56.97 -46.5,-79.74 -35.49,-44.75 -74.72,-81.45 -118.24,-115.43 l -37.77,38.98 c 30.75,40.25 61.56,82.54 85.79,124.31 6.05,10.43 11.49,20.92 16.04,31.11 4.63,10.07 8.33,20.08 10.09,28.42 1.93,8.25 0.99,14.71 0.42,13.28 l -0.04,-0.33 c 0.03,-0.18 0.1,-0.38 -0.32,0.65 l -1.73,4.25 -3.47,8.47 c -2.22,5.63 -4.63,11.3 -7.25,16.99 -19.98,45.52 -43.61,91.2 -67.84,136.5 -24.19,45.23 -49.56,90.94 -74.62,135.15 l 94.22,55.91"
         style="fill:#f46b74;fill-opacity:1;fill-rule:nonzero;stroke:none"
         id="path198" /><path
         d="m 3643.44,2062.13 -56.9,-50.3 79.18,-49.96 c 0,0 23.31,37.77 22.29,72.76 l -44.57,27.5"
         style="fill:#f46b74;fill-opacity:1;fill-rule:nonzero;stroke:none"
         id="path200" /><path
         d="m 3565.67,1937.28 60.68,-38.97 39.37,63.56 -79.18,49.96 -20.87,-74.55"
         style="fill:#f46b74;fill-opacity:1;fill-rule:nonzero;stroke:none"
         id="path202" /><path
         d="m 3346.88,2924.71 c -1.1,-5.73 -5.04,-9.78 -8.78,-9.05 -3.74,0.72 -5.87,5.95 -4.77,11.68 1.11,5.72 5.04,9.77 8.78,9.04 3.74,-0.72 5.88,-5.95 4.77,-11.67"
         style="fill:#17282f;fill-opacity:1;fill-rule:nonzero;stroke:none"
         id="path204" /><path
         d="m 3342.37,2914.83 c 0,0 -19.41,-30.5 -36.82,-43.66 8.29,-11.41 26.34,-10.42 26.34,-10.42 l 10.48,54.08"
         style="fill:#f14358;fill-opacity:1;fill-rule:nonzero;stroke:none"
         id="path206" /><path
         d="m 3373.99,2952.43 2.32,0.94 c 1.38,1.29 1.44,3.46 0.14,4.83 -12.98,13.8 -28.56,11.18 -29.23,11.06 -1.86,-0.33 -3.1,-2.11 -2.76,-3.97 0.33,-1.86 2.14,-3.09 3.96,-2.77 0.51,0.09 12.69,1.99 23.05,-9.01 0.68,-0.72 1.6,-1.08 2.52,-1.08"
         style="fill:#17282f;fill-opacity:1;fill-rule:nonzero;stroke:none"
         id="path208" /><path
         d="m 3483.99,2855.47 c -10.37,-52.87 -20.71,-149.76 16.28,-185.04 0,0 -14.45,-53.64 -112.71,-53.64 -108.03,0 -47.45,45.38 -47.45,45.38 45.78,39.74 57.31,81.41 47.04,122.49 l 96.84,70.81"
         style="fill:#f46b74;fill-opacity:1;fill-rule:nonzero;stroke:none"
         id="path210" /><path
         d="m 3512.36,2654.54 c 5.53,19.88 11.55,42.61 -5.85,47.89 -19.15,5.82 -120.75,3.96 -154.19,-13.54 -33.43,-17.51 -19.87,-55.48 -19.87,-55.48 l 179.91,21.13"
         style="fill:#17282f;fill-opacity:1;fill-rule:nonzero;stroke:none"
         id="path212" /><path
         d="m 3851.45,230.281 -2.01,-0.66 c -1.36,-0.652 -2.21,-1.601 -2.6,-2.922 -0.92,-3.09 0.22,-4.051 0.6,-4.367 3.88,-3.312 18.32,-0.262 28.48,3.797 -6.89,2.441 -18.05,5.543 -24.47,4.152 z m 11.76,-11.551 c -7.25,-1.57 -14.5,-1.98 -18,0.989 -1.46,1.25 -2.93,3.64 -1.65,7.961 0.67,2.261 2.15,3.949 4.4,5.031 9.76,4.648 32.19,-4.492 33.15,-4.879 l 1.05,-1.531 -0.96,-1.59 c -3.43,-1.652 -10.71,-4.402 -17.99,-5.981"
         style="fill:#406fbf;fill-opacity:1;fill-rule:nonzero;stroke:none"
         id="path214" /><path
         d="m 3860.36,250.129 -0.75,-0.207 c -2.12,-0.742 -2.09,-1.774 -2.08,-2.211 0.12,-4.859 11.66,-14.59 20.12,-18.539 -2.11,5.769 -6.94,17.168 -13.13,20.316 -1.42,0.731 -2.79,0.942 -4.16,0.641 z m 20.46,-25.547 -0.85,0.027 c -8.17,2.379 -25.65,14.801 -25.86,23.012 -0.04,1.481 0.47,4.18 4.38,5.539 2.53,0.871 5.07,0.668 7.58,-0.621 9.66,-4.918 15.77,-24.937 16.02,-25.789 l -0.42,-1.699 -0.85,-0.469"
         style="fill:#406fbf;fill-opacity:1;fill-rule:nonzero;stroke:none"
         id="path216" /><path
         d="m 3318.83,197.34 c -1.2,0 -2.32,-0.11 -3.31,-0.391 -1.57,-0.429 -2.67,-1.211 -3.35,-2.39 -1.21,-2.129 -0.77,-3.18 -0.33,-3.789 3.36,-4.668 21.63,-4.77 35.07,-2.879 -6.7,3.449 -19.63,9.449 -28.08,9.449 z m 11.47,-14.008 c -9.28,0 -18.24,1.277 -21.24,5.438 -1.05,1.472 -1.88,3.949 0.14,7.492 1.13,1.976 2.96,3.328 5.42,4 12.04,3.277 37.29,-11.133 38.37,-11.742 l 0.83,-1.758 -1.35,-1.403 c -4.61,-0.929 -13.53,-2.027 -22.17,-2.027"
         style="fill:#406fbf;fill-opacity:1;fill-rule:nonzero;stroke:none"
         id="path218" /><path
         d="m 3334.5,214.629 -1.03,-0.059 c -3.08,-0.308 -3.28,-1.519 -3.34,-1.922 -0.79,-4.906 10.95,-17.187 19.85,-22.539 -0.93,5.692 -3.5,17.332 -9.54,22.289 -1.82,1.5 -3.77,2.231 -5.94,2.231 z m 17.63,-29.309 -0.7,0.16 c -8.72,3.918 -26.01,19.54 -24.68,27.711 0.31,1.93 1.67,4.309 6.37,4.789 3.52,0.36 6.69,-0.64 9.5,-2.929 9.19,-7.559 11.13,-27.02 11.22,-27.852 l -0.71,-1.551 -1,-0.328"
         style="fill:#406fbf;fill-opacity:1;fill-rule:nonzero;stroke:none"
         id="path220" /><path
         d="m 3431.61,187.039 h -72.28 l -7.2,167.383 h 72.28 l 7.2,-167.383"
         style="fill:#f46b74;fill-opacity:1;fill-rule:nonzero;stroke:none"
         id="path222" /><path
         d="m 3961.39,243.781 -70.65,-15.301 -70.93,155.911 70.65,15.3 70.93,-155.91"
         style="fill:#f46b74;fill-opacity:1;fill-rule:nonzero;stroke:none"
         id="path224" /><path
         d="m 3883.95,235.582 79.37,17.168 c 2.89,0.629 5.82,-0.84 7.06,-3.512 l 27.54,-59.777 c 2.86,-6.199 -0.92,-13.473 -7.62,-14.801 -27.81,-5.519 -41.62,-6.808 -76.52,-14.371 -21.48,-4.641 -69.95,-16.449 -99.6,-22.879 -29,-6.281 -39.87,22.059 -28.31,27.352 51.85,23.687 73.52,44.547 87.55,63.988 2.54,3.512 6.31,5.91 10.53,6.832"
         style="fill:#17282f;fill-opacity:1;fill-rule:nonzero;stroke:none"
         id="path226" /><path
         d="m 3359.81,195.41 h 78.94 c 2.95,0 5.51,-2.058 6.15,-4.941 l 14.27,-64.25 c 1.48,-6.66 -3.57,-12.969 -10.4,-12.848 -28.47,0.481 -69.61,2.149 -105.4,2.149 -41.85,0 -41.13,-2.29 -90.21,-2.29 -29.67,0 -37.9,30 -25.48,32.719 56.54,12.371 65.86,13.699 114.72,43.832 5.31,3.27 11.17,5.629 17.41,5.629"
         style="fill:#17282f;fill-opacity:1;fill-rule:nonzero;stroke:none"
         id="path228" /><path
         d="m 3285.63,2518.27 c -27.58,-51.06 -56.62,-99.83 -87.7,-148.39 -31.32,-48.32 -63.89,-95.9 -101.76,-142.06 -4.57,-5.78 -9.84,-11.5 -14.73,-17.23 l -7.59,-8.65 -8.86,-9.12 c -5.91,-5.96 -11.32,-10.76 -17.07,-16.12 l -16.86,-14.55 c -22.34,-18.96 -44.96,-36.54 -67.8,-53.83 -45.7,-34.48 -92.36,-66.88 -140.7,-97.56 l -34.05,42.25 c 39.38,40.45 79.73,80.09 119.62,119.3 19.9,19.61 39.77,39.23 58.81,58.7 9.3,9.76 18.65,19.66 26.45,28.71 l 5.4,6.53 5.86,7.71 c 3.91,5.3 7.95,10.23 11.77,15.8 31.07,43.35 60.37,90.43 88.96,137.81 28.54,47.35 56.9,95.89 84.26,143.51 l 95.99,-52.81"
         style="fill:#f46b74;fill-opacity:1;fill-rule:nonzero;stroke:none"
         id="path230" /><path
         d="m 3651.96,2654.09 c 67.75,-15.54 147.41,-258.73 147.41,-258.73 l -115.84,-75.79 c 0,0 -73.74,113.14 -112.06,193.82 -40.15,84.53 11.23,156.58 80.49,140.7"
         style="fill:#406fbf;fill-opacity:1;fill-rule:nonzero;stroke:none"
         id="path232" /><path
         d="m 3683.53,2319.57 c 0,0 -29.32,44.98 -60.59,98.46 0,0.03 0,0.05 0,0.09 4.5,-7.69 8.94,-15.2 13.26,-22.43 7.74,40.19 2,77.16 -7.19,103.25 4.97,51.03 12.33,103.26 22.95,155.15 v 0 0 c 0,0 -2.33,0.47 -6.54,1.25 2.16,-0.33 4.34,-0.75 6.54,-1.25 67.75,-15.54 147.41,-258.73 147.41,-258.73 l -9.09,-5.95 -89.43,-58.51 -17.32,-11.33"
         style="fill:#b8d2ef;fill-opacity:1;fill-rule:nonzero;stroke:none"
         id="path234" /><path
         d="m 3636.2,2395.69 c -4.32,7.23 -8.76,14.74 -13.26,22.43 1.42,26.44 3.4,53.46 6.07,80.82 9.19,-26.09 14.93,-63.06 7.19,-103.25"
         style="fill:#739dd9;fill-opacity:1;fill-rule:nonzero;stroke:none"
         id="path236" /><path
         d="m 3247.03,2650.36 c 0,0 -76.94,-86.9 -4.28,-624.74 116.48,0 329.92,0 386.6,0 2.66,59.34 -34.62,348.84 22.61,628.47 0,0 -66.26,13.29 -129.41,16.34 -49.4,2.38 -120.92,3.96 -164.35,-0.01 -57.25,-5.22 -111.17,-20.06 -111.17,-20.06"
         style="fill:#406fbf;fill-opacity:1;fill-rule:nonzero;stroke:none"
         id="path238" /><path
         d="m 3629.35,2025.62 c -56.68,0 -270.12,0 -386.6,0 -17.19,127.24 -26.01,229.25 -29.45,310.83 0.01,0.01 0.02,0.02 0.03,0.04 0.38,-8.79 0.82,-17.82 1.32,-27.09 41.16,26.41 79.53,89.53 88.69,141.98 30.59,45.78 53.93,92.32 53.9,127.68 -0.01,8.45 -1.35,16.27 -4.25,23.28 -13.39,32.42 -47.11,50.53 -83.64,50.53 -6.26,0 -12.62,-0.53 -18.96,-1.62 12.64,3.28 59.02,14.72 107.81,19.17 19.14,1.75 43.74,2.42 69.49,2.42 32.68,0 67.23,-1.08 94.86,-2.41 63.15,-3.05 129.41,-16.34 129.41,-16.34 -10.62,-51.89 -17.98,-104.12 -22.95,-155.15 -2.67,-27.36 -4.65,-54.38 -6.07,-80.82 0,-0.04 0,-0.06 0,-0.09 -2.23,-41.52 -3.09,-81.61 -3.09,-119.36 0.01,-126.45 9.65,-226.57 9.64,-265.95 0,-2.65 -0.05,-5.02 -0.14,-7.1"
         style="fill:#b8d2ef;fill-opacity:1;fill-rule:nonzero;stroke:none"
         id="path240" /><path
         d="m 3214.65,2309.4 c -0.5,9.27 -0.94,18.3 -1.32,27.09 27.82,31.55 61.96,72.9 90.01,114.89 -9.16,-52.45 -47.53,-115.57 -88.69,-141.98"
         style="fill:#739dd9;fill-opacity:1;fill-rule:nonzero;stroke:none"
         id="path242" /><path
         d="m 1779.81,2639.66 -11.7,-18.89 -92.17,64.05 5.96,9.62 97.91,-54.78"
         style="fill:#406fbf;fill-opacity:1;fill-rule:nonzero;stroke:none"
         id="path244" /><path
         d="m 1782.88,2644.62 -17.85,-28.81 904.54,-618.66 70.09,113.15 -956.78,534.32"
         style="fill:#17282f;fill-opacity:1;fill-rule:nonzero;stroke:none"
         id="path246" /><path
         d="m 1768.36,2621.18 v 0 l 1.56,2.52 9.64,15.55 -11.2,-18.07"
         style="fill:#ffffff;fill-opacity:1;fill-rule:nonzero;stroke:none"
         id="path248" /><path
         d="m 1768.36,2621.18 v 0 l 1.56,2.52 -1.56,-2.52"
         style="fill:#5d87cd;fill-opacity:1;fill-rule:nonzero;stroke:none"
         id="path250" /><path
         d="m 2682.63,2018.23 -914.27,602.95 11.2,18.07 947.04,-550.04 -28.03,-45.25 -15.94,-25.73"
         style="fill:#405158;fill-opacity:1;fill-rule:nonzero;stroke:none"
         id="path252" /><path
         d="m 1775.83,2633.23 -3.74,-6.03 925.18,-585.33 14.68,23.71 -936.12,567.65"
         style="fill:#17282f;fill-opacity:1;fill-rule:nonzero;stroke:none"
         id="path254" /><path
         d="m 2753.46,1893.55 c -9.87,0 -19.41,2.65 -27.83,7.87 l 6.51,10.52 c 9.97,-6.18 22.08,-7.63 34.05,-4.17 12.22,3.56 22.86,11.82 29.94,23.27 7.09,11.43 9.74,24.62 7.48,37.15 -2.21,12.29 -8.92,22.46 -18.88,28.63 l -83.37,51.65 6.51,10.52 83.37,-51.65 c 12.99,-8.04 21.7,-21.17 24.55,-36.95 2.81,-15.55 -0.44,-31.83 -9.14,-45.88 -8.7,-14.04 -21.84,-24.21 -37.01,-28.61 -5.4,-1.58 -10.84,-2.35 -16.18,-2.35"
         style="fill:#17282f;fill-opacity:1;fill-rule:nonzero;stroke:none"
         id="path256" /><path
         d="m 3352.99,2602.34 c 38.05,-92.08 -191.96,-322.16 -191.96,-322.16 l -119.05,89.96 c 0,0 82.32,120.59 116.19,203.33 41.85,102.2 165.87,98.96 194.82,28.87"
         style="fill:#406fbf;fill-opacity:1;fill-rule:nonzero;stroke:none"
         id="path258" /><path
         d="m 3161.03,2280.18 -15.76,11.91 -84.31,63.7 -18.98,14.35 c 0,0 82.32,120.59 116.19,203.33 22.5,54.93 68.73,79.4 111.18,79.4 36.53,0 70.25,-18.11 83.64,-50.53 2.9,-7.01 4.24,-14.83 4.25,-23.28 0.03,-35.36 -23.31,-81.9 -53.9,-127.68 -28.05,-41.99 -62.19,-83.34 -90.01,-114.89 -0.01,-0.02 -0.02,-0.03 -0.03,-0.04 -29.77,-33.76 -52.27,-56.27 -52.27,-56.27"
         style="fill:#b8d2ef;fill-opacity:1;fill-rule:nonzero;stroke:none"
         id="path260" /><path
         d="m 3079.8,2403.59 c 25.14,-24.48 80.9,-77.65 106.52,-92.86 3.83,-2.27 5.12,-7.14 3.03,-11.07 -8.48,-15.92 -27.73,-39.25 -40.54,-41.17 -15.13,-2.28 -131.74,74.77 -133.77,90.48 -1.38,10.71 23.28,38.01 39.13,54.31 6.99,7.19 18.44,7.32 25.63,0.31"
         style="fill:#17282f;fill-opacity:1;fill-rule:nonzero;stroke:none"
         id="path262" /><path
         d="m 3660.89,2369.67 c 31.36,15.78 99.8,51.14 122.54,70.4 3.39,2.88 8.42,2.51 11.45,-0.74 12.29,-13.22 28.06,-39.03 25.7,-51.76 -2.79,-15.05 -113.66,-100.15 -129.17,-96.93 -10.58,2.18 -28.34,34.4 -38.58,54.7 -4.52,8.96 -0.9,19.83 8.06,24.33"
         style="fill:#17282f;fill-opacity:1;fill-rule:nonzero;stroke:none"
         id="path264" /><path
         d="m 2812.08,2069.7 -72.78,-22.78 33.04,-71.79 c 0,0 63.27,8.36 75.78,59.49 l -36.04,35.08"
         style="fill:#f46b74;fill-opacity:1;fill-rule:nonzero;stroke:none"
         id="path266" /><path
         d="m 2706.17,2008.76 26.5,-47.52 39.67,13.89 -33.04,71.79 -33.13,-38.16"
         style="fill:#f46b74;fill-opacity:1;fill-rule:nonzero;stroke:none"
         id="path268" /><path
         d="m 3428.16,268.102 h -0.03 l -0.63,14.64 h 0.03 l 0.63,-14.64 m -72.32,0 v 0 l -0.54,12.628 0.55,-12.628"
         style="fill:#c3c5c2;fill-opacity:1;fill-rule:nonzero;stroke:none"
         id="path270" /><path
         d="m 3428.13,268.102 h -72.29 l -0.54,12.628 -0.08,2.012 h 72.28 l 0.63,-14.64"
         style="fill:#ea5b5b;fill-opacity:1;fill-rule:nonzero;stroke:none"
         id="path272" /><path
         d="m 3927.04,319.281 -6.21,13.641 0.05,0.008 6.21,-13.641 -0.05,-0.008"
         style="fill:#c3c5c2;fill-opacity:1;fill-rule:nonzero;stroke:none"
         id="path274" /><path
         d="m 3856.42,303.98 -6.22,13.649 70.63,15.293 6.21,-13.641 -70.62,-15.301"
         style="fill:#ea5b5b;fill-opacity:1;fill-rule:nonzero;stroke:none"
         id="path276" /><path
         d="m 3540.14,2899.88 c -17.93,-69.46 -24.89,-111.03 -67.38,-140.23 -63.92,-43.94 -144.45,5.06 -147.64,78.48 -2.86,66.08 26.94,168.57 101.16,183.21 73.13,14.44 131.79,-52 113.86,-121.46"
         style="fill:#f46b74;fill-opacity:1;fill-rule:nonzero;stroke:none"
         id="path278" /><path
         d="m 3377.39,2883.18 c -10.17,20.47 -9.06,49.41 12.05,69.25 -22.22,11.52 -42.78,50.96 -21.39,73.74 -57.49,13.33 -25.68,73.06 63.7,67.22 88.74,-5.79 19.36,-43.47 19.36,-43.47 0,0 192.22,-14.86 122.78,-84.86 30.55,-18.33 33.34,-79.83 -9.86,-109.59 -69.59,-47.91 -48.37,-101.58 -101.67,-91.94 -48.7,8.81 -90.69,63.18 -84.97,119.65"
         style="fill:#17282f;fill-opacity:1;fill-rule:nonzero;stroke:none"
         id="path280" /><path
         d="m 3404.79,2893.61 c -2.03,-16.23 -14.62,-32.85 -26.24,-39.15 -17.94,-9.73 -28.51,-2.44 -28.8,16.13 -0.27,16.71 7.41,43.84 25.03,50.19 17.36,6.25 32.34,-8.61 30.01,-27.17"
         style="fill:#f46b74;fill-opacity:1;fill-rule:nonzero;stroke:none"
         id="path282" /><path
         d="m 3379.89,2025.62 c 0,0 82.03,-552.39 127.06,-759.33 49.31,-226.61 313.01,-953.099 313.01,-953.099 l 129.38,28.008 c 0,0 -197.41,680.181 -225.55,904.551 -30.54,243.52 -94.44,779.87 -94.44,779.87 h -249.46"
         style="fill:#17282f;fill-opacity:1;fill-rule:nonzero;stroke:none"
         id="path284" /><path
         d="m 3785.38,371.191 27.71,-61.601 145.57,31.519 -15.86,58.582 -157.42,-28.5"
         style="fill:#406fbf;fill-opacity:1;fill-rule:nonzero;stroke:none"
         id="path286" /><path
         d="m 3813.09,309.59 -27.71,61.601 157.42,28.5 15.86,-58.582 -37.83,-8.187 -70.63,-15.293 h -0.01 l -37.1,-8.039"
         style="fill:#b8d2ef;fill-opacity:1;fill-rule:nonzero;stroke:none"
         id="path288" /><path
         d="m 3505.13,1274.57 c -10.6,49.82 -23.1,117.46 -36.02,191.86 v 0.01 c 12.92,-74.33 25.41,-141.9 36.03,-191.73 -0.01,-0.04 -0.01,-0.09 -0.01,-0.14"
         style="fill:#a7a9a8;fill-opacity:1;fill-rule:nonzero;stroke:none"
         id="path290" /><path
         d="m 3505.14,1274.71 c -10.62,49.83 -23.11,117.4 -36.03,191.73 4.2,98.94 9.33,205.41 14.03,298.62 38.56,-113.94 30.68,-351.84 22,-490.35"
         style="fill:#0f191d;fill-opacity:1;fill-rule:nonzero;stroke:none"
         id="path292" /><path
         d="m 3242.75,2025.62 c 0,0 -9.96,-540.42 -2.1,-760.85 8.18,-229.27 88.26,-979.961 88.26,-979.961 h 122.45 c 0,0 4.49,737.301 9.94,962.471 5.94,245.46 35.58,778.34 35.58,778.34 h -254.13"
         style="fill:#17282f;fill-opacity:1;fill-rule:nonzero;stroke:none"
         id="path294" /><path
         d="m 3305.34,348.488 6.92,-65.746 h 148.95 l 4.01,60.289 -159.88,5.457"
         style="fill:#406fbf;fill-opacity:1;fill-rule:nonzero;stroke:none"
         id="path296" /><path
         d="m 3461.21,282.742 h -148.95 l -6.92,65.746 159.88,-5.457 -4.01,-60.289"
         style="fill:#b8d2ef;fill-opacity:1;fill-rule:nonzero;stroke:none"
         id="path298" /></g></g></svg>
